ZiroliWes-Regular-Narrow2.ufo
<glyph name="percent" format="1">
  <advance width="814"/>
  <unicode hex="0025"/>
  <outline>
    <contour>
      <point x="302" y="-4" type="curve"/>
      <point x="302" y="12" type="line"/>
      <point x="259" y="12"/>
      <point x="260" y="57"/>
      <point x="367" y="255" type="curve" smooth="yes"/>
      <point x="448" y="405" type="line" smooth="yes"/>
      <point x="578" y="647"/>
      <point x="602" y="663"/>
      <point x="664" y="666" type="curve"/>
      <point x="664" y="680" type="line"/>
      <point x="625" y="674"/>
      <point x="598" y="672"/>
      <point x="575" y="672" type="curve" smooth="yes"/>
      <point x="553" y="672"/>
      <point x="499" y="675"/>
      <point x="476" y="680" type="curve"/>
      <point x="476" y="666" type="line"/>
      <point x="513" y="665"/>
      <point x="523" y="651"/>
      <point x="385" y="397" type="curve" smooth="yes"/>
      <point x="307" y="253" type="line" smooth="yes"/>
      <point x="185" y="25"/>
      <point x="163" y="10"/>
      <point x="109" y="12" type="curve"/>
      <point x="109" y="-4" type="line"/>
      <point x="149" y="0"/>
      <point x="185" y="4"/>
      <point x="213" y="4" type="curve" smooth="yes"/>
      <point x="236" y="4"/>
      <point x="278" y="0"/>
    </contour>
    <contour>
      <point x="24" y="454"/>
      <point x="89" y="387"/>
      <point x="179" y="387" type="curve" smooth="yes"/>
      <point x="269" y="387"/>
      <point x="339" y="449"/>
      <point x="339" y="546" type="curve" smooth="yes"/>
      <point x="339" y="618"/>
      <point x="285" y="689"/>
      <point x="186" y="689" type="curve" smooth="yes"/>
      <point x="96" y="689"/>
      <point x="24" y="631"/>
      <point x="24" y="536" type="curve" smooth="yes"/>
    </contour>
    <contour>
      <point x="123" y="419"/>
      <point x="83" y="482"/>
      <point x="83" y="546" type="curve" smooth="yes"/>
      <point x="83" y="611"/>
      <point x="120" y="655"/>
      <point x="179" y="655" type="curve" smooth="yes"/>
      <point x="238" y="655"/>
      <point x="281" y="601"/>
      <point x="281" y="528" type="curve" smooth="yes"/>
      <point x="281" y="451"/>
      <point x="234" y="419"/>
      <point x="186" y="419" type="curve" smooth="yes"/>
    </contour>
    <contour>
      <point x="459" y="62"/>
      <point x="524" y="-5"/>
      <point x="614" y="-5" type="curve" smooth="yes"/>
      <point x="704" y="-5"/>
      <point x="774" y="57"/>
      <point x="774" y="154" type="curve" smooth="yes"/>
      <point x="774" y="226"/>
      <point x="720" y="297"/>
      <point x="621" y="297" type="curve" smooth="yes"/>
      <point x="531" y="297"/>
      <point x="459" y="239"/>
      <point x="459" y="144" type="curve" smooth="yes"/>
    </contour>
    <contour>
      <point x="558" y="27"/>
      <point x="518" y="90"/>
      <point x="518" y="154" type="curve" smooth="yes"/>
      <point x="518" y="219"/>
      <point x="555" y="263"/>
      <point x="614" y="263" type="curve" smooth="yes"/>
      <point x="673" y="263"/>
      <point x="716" y="209"/>
      <point x="716" y="136" type="curve" smooth="yes"/>
      <point x="716" y="59"/>
      <point x="669" y="27"/>
      <point x="621" y="27" type="curve" smooth="yes"/>
    </contour>
  </outline>
</glyph>
<glyph name="period" format="1">
  <advance width="231"/>
  <unicode hex="002E"/>
  <outline>
    <contour>
      <point x="46" y="41" type="curve" smooth="yes"/>
      <point x="46" y="9"/>
      <point x="78" y="-28"/>
      <point x="115" y="-28" type="curve" smooth="yes"/>
      <point x="154" y="-28"/>
      <point x="185" y="9"/>
      <point x="185" y="41" type="curve" smooth="yes"/>
      <point x="185" y="74"/>
      <point x="154" y="111"/>
      <point x="115" y="111" type="curve" smooth="yes"/>
      <point x="78" y="111"/>
      <point x="46" y="74"/>
    </contour>
  </outline>
</glyph>
<glyph name="one" format="1">
  <advance width="388"/>
  <unicode hex="0031"/>
  <outline>
    <contour>
      <point x="357" y="12" type="line"/>
      <point x="265" y="17"/>
      <point x="255" y="38"/>
      <point x="255" y="248" type="curve" smooth="yes"/>
      <point x="255" y="323" type="line" smooth="yes"/>
      <point x="255" y="597"/>
      <point x="258" y="649"/>
      <point x="266" y="694" type="curve"/>
      <point x="255" y="697" type="line"/>
      <point x="216.345355776" y="633.931896266"/>
      <point x="134.257371506" y="559.089188146"/>
      <point x="33" y="524" type="curve"/>
      <point x="35" y="508" type="line"/>
      <point x="59" y="517"/>
      <point x="81" y="523"/>
      <point x="102" y="523" type="curve" smooth="yes"/>
      <point x="142" y="523"/>
      <point x="155" y="504"/>
      <point x="155" y="312" type="curve" smooth="yes"/>
      <point x="155" y="248" type="line" smooth="yes"/>
      <point x="155" y="38"/>
      <point x="147" y="17"/>
      <point x="53" y="10" type="curve"/>
      <point x="53" y="-4" type="line"/>
      <point x="106" y="0"/>
      <point x="155" y="4"/>
      <point x="205" y="4" type="curve"/>
      <point x="240" y="4"/>
      <point x="313" y="0"/>
      <point x="357" y="-4" type="curve"/>
    </contour>
  </outline>
</glyph>
<glyph name="four" format="1">
  <advance width="689"/>
  <unicode hex="0034"/>
  <outline>
    <contour>
      <point x="260" y="382" type="curve" smooth="yes"/>
      <point x="394" y="630"/>
      <point x="438" y="657"/>
      <point x="508" y="666" type="curve"/>
      <point x="508" y="680" type="line"/>
      <point x="470" y="674"/>
      <point x="439" y="672"/>
      <point x="355" y="672" type="curve" smooth="yes"/>
      <point x="304" y="672"/>
      <point x="260" y="676"/>
      <point x="227" y="680" type="curve"/>
      <point x="227" y="666" type="line"/>
      <point x="307" y="660"/>
      <point x="335" y="630"/>
      <point x="212" y="414" type="curve" smooth="yes"/>
      <point x="171" y="342"/>
      <point x="113.314592432" y="253.017167567"/>
      <point x="64" y="195" type="curve"/>
      <point x="175" y="195" type="line"/>
      <point x="191.811514957" y="245.43454487"/>
      <point x="226" y="318"/>
    </contour>
    <contour>
      <point x="128" y="254" type="curve"/>
      <point x="64" y="195" type="line"/>
      <point x="72" y="181" type="line"/>
      <point x="155.832379159" y="188.70872452"/>
      <point x="321" y="191"/>
      <point x="429" y="188" type="curve"/>
      <point x="506" y="191"/>
      <point x="607" y="188"/>
      <point x="634" y="185" type="curve"/>
      <point x="635" y="197" type="line"/>
      <point x="629" y="249"/>
      <point x="647" y="329"/>
      <point x="664" y="370" type="curve"/>
      <point x="647" y="374" type="line"/>
      <point x="625" y="271"/>
      <point x="581" y="248"/>
      <point x="483" y="250" type="curve"/>
      <point x="392" y="247" type="line"/>
      <point x="356" y="244"/>
      <point x="310" y="244"/>
      <point x="259" y="244" type="curve" smooth="yes"/>
      <point x="204.162790698" y="244.0"/>
      <point x="157.157723497" y="250.355284563"/>
    </contour>
    <contour>
      <point x="384" y="384" type="curve"/>
      <point x="385" y="365"/>
      <point x="386" y="283"/>
      <point x="384" y="209" type="curve"/>
      <point x="482" y="209" type="line"/>
      <point x="481" y="292"/>
      <point x="486" y="392"/>
      <point x="491" y="421" type="curve"/>
      <point x="484" y="423" type="line"/>
      <point x="461" y="404"/>
      <point x="419" y="392"/>
    </contour>
    <contour>
      <point x="582" y="-4" type="curve"/>
      <point x="582" y="12" type="line"/>
      <point x="490.0" y="17.0"/>
      <point x="480" y="38.0"/>
      <point x="480" y="248" type="curve" smooth="yes"/>
      <point x="480" y="310" type="line"/>
      <point x="385" y="310" type="line"/>
      <point x="386" y="248" type="line" smooth="yes"/>
      <point x="389.38700185" y="38.0058852766"/>
      <point x="378.0" y="17.0"/>
      <point x="284" y="10" type="curve"/>
      <point x="284" y="-4" type="line"/>
      <point x="329.0" y="0.0"/>
      <point x="393.0" y="4.0"/>
      <point x="430" y="4" type="curve" smooth="yes"/>
      <point x="469.0" y="4.0"/>
      <point x="544.0" y="0.0"/>
    </contour>
  </outline>
</glyph>
<glyph name="seven" format="1">
  <advance width="581"/>
  <unicode hex="0037"/>
  <outline>
    <contour>
      <point x="386" y="-4" type="curve"/>
      <point x="386" y="12" type="line"/>
      <point x="330" y="12"/>
      <point x="314" y="28"/>
      <point x="358" y="145" type="curve" smooth="yes"/>
      <point x="451" y="392"/>
      <point x="557.12910077" y="608.213938418"/>
      <point x="592" y="666" type="curve"/>
      <point x="590" y="680" type="line"/>
      <point x="561.063568343" y="672.765892086"/>
      <point x="423.398406375" y="670.0"/>
      <point x="327" y="670" type="curve"/>
      <point x="327" y="646" type="line"/>
      <point x="444" y="630" type="line"/>
      <point x="416.0" y="533.0"/>
      <point x="324.097192986" y="307.224291507"/>
      <point x="272" y="187" type="curve" smooth="yes"/>
      <point x="209" y="44"/>
      <point x="179.704867111" y="15.8866601043"/>
      <point x="101" y="12" type="curve"/>
      <point x="101" y="-4" type="line"/>
      <point x="138" y="0"/>
      <point x="187" y="4"/>
      <point x="228" y="4" type="curve" smooth="yes"/>
      <point x="270" y="4"/>
      <point x="350" y="0"/>
    </contour>
    <contour>
      <point x="474" y="609" type="curve"/>
      <point x="474" y="625"/>
      <point x="481.0" y="655.766666667"/>
      <point x="481" y="670" type="curve"/>
      <point x="345" y="670" type="line" smooth="yes"/>
      <point x="259.611398964" y="670"/>
      <point x="185.822545128" y="670.358512471"/>
      <point x="139" y="681" type="curve" smooth="yes"/>
      <point x="113" y="687"/>
      <point x="99" y="696"/>
      <point x="96" y="706" type="curve"/>
      <point x="86" y="704" type="line"/>
      <point x="88" y="662"/>
      <point x="80" y="566"/>
      <point x="49" y="489" type="curve"/>
      <point x="67" y="482" type="line"/>
      <point x="89" y="598"/>
      <point x="144" y="616"/>
      <point x="287" y="616" type="curve" smooth="yes"/>
      <point x="353" y="616"/>
      <point x="403" y="615"/>
    </contour>
  </outline>
</glyph>
<glyph name="A" format="1">
  <advance width="675.0"/>
  <unicode hex="0041"/>
  <outline>
    <contour>
      <point x="321" y="694" type="line"/>
      <point x="280.04829928" y="569.147253902"/>
      <point x="234.888608492" y="449.699536064"/>
      <point x="159" y="245" type="curve" smooth="yes"/>
      <point x="79" y="30"/>
      <point x="62" y="12"/>
      <point x="0" y="12" type="curve"/>
      <point x="0" y="-4" type="line"/>
      <point x="31" y="1"/>
      <point x="79" y="4"/>
      <point x="115" y="4" type="curve" smooth="yes"/>
      <point x="149" y="4"/>
      <point x="211" y="0"/>
      <point x="237" y="-4" type="curve"/>
      <point x="237" y="12" type="line"/>
      <point x="190" y="12"/>
      <point x="176" y="22"/>
      <point x="195" y="110" type="curve" smooth="yes"/>
      <point x="199" y="133"/>
      <point x="213" y="173"/>
      <point x="220" y="194" type="curve"/>
      <point x="226" y="205" type="line"/>
      <point x="243.98811339" y="288.944529155"/>
      <point x="319.080524368" y="479.195870085"/>
      <point x="356" y="569" type="curve"/>
    </contour>
    <contour>
      <point x="459" y="119" type="curve" smooth="yes"/>
      <point x="487" y="34"/>
      <point x="478" y="12"/>
      <point x="411" y="12" type="curve"/>
      <point x="411" y="-4" type="line"/>
      <point x="441" y="0"/>
      <point x="494" y="4"/>
      <point x="546" y="4" type="curve" smooth="yes"/>
      <point x="587" y="4"/>
      <point x="642" y="0"/>
      <point x="675" y="-4" type="curve"/>
      <point x="675" y="12" type="line"/>
      <point x="623" y="12"/>
      <point x="603" y="27"/>
      <point x="534" y="193" type="curve" smooth="yes"/>
      <point x="473.909501811" y="337.217195653"/>
      <point x="398.075996075" y="521.792518653"/>
      <point x="335" y="694" type="curve"/>
      <point x="321" y="694" type="line"/>
      <point x="297" y="518" type="line"/>
      <point x="343.121331587" y="411.720409822"/>
      <point x="378.918050413" y="327.221863517"/>
      <point x="420" y="216" type="curve"/>
      <point x="427" y="201" type="line"/>
      <point x="433" y="186"/>
      <point x="444" y="164"/>
    </contour>
    <contour>
      <point x="186" y="176" type="line"/>
      <point x="219" y="177"/>
      <point x="269" y="179"/>
      <point x="319" y="179" type="curve" smooth="yes"/>
      <point x="358" y="179"/>
      <point x="417" y="177"/>
      <point x="449" y="176" type="curve"/>
      <point x="449" y="235" type="line"/>
      <point x="416" y="233"/>
      <point x="378" y="231"/>
      <point x="318" y="231" type="curve" smooth="yes"/>
      <point x="277" y="231"/>
      <point x="219" y="233"/>
      <point x="186" y="234" type="curve"/>
    </contour>
  </outline>
</glyph>
<glyph name="C" format="1">
  <advance width="700"/>
  <unicode hex="0043"/>
  <outline>
    <contour>
      <point x="598" y="475" type="curve"/>
      <point x="613" y="478" type="line"/>
      <point x="609" y="517"/>
      <point x="608" y="548"/>
      <point x="608" y="574" type="curve" smooth="yes"/>
      <point x="608" y="627"/>
      <point x="616" y="664"/>
      <point x="626" y="686" type="curve"/>
      <point x="616" y="691" type="line"/>
      <point x="612" y="679"/>
      <point x="592" y="676"/>
      <point x="572" y="676" type="curve" smooth="yes"/>
      <point x="543" y="676"/>
      <point x="481" y="684"/>
      <point x="421" y="684" type="curve" smooth="yes"/>
      <point x="177" y="684"/>
      <point x="66" y="524"/>
      <point x="66" y="352" type="curve" smooth="yes"/>
      <point x="66" y="156"/>
      <point x="190" y="-10"/>
      <point x="453" y="-10" type="curve" smooth="yes"/>
      <point x="517" y="-10"/>
      <point x="568" y="0"/>
      <point x="587" y="0" type="curve"/>
      <point x="587" y="5" type="line" smooth="yes"/>
      <point x="587" y="26"/>
      <point x="586" y="73"/>
      <point x="621" y="178" type="curve"/>
      <point x="605" y="184" type="line"/>
      <point x="588" y="86"/>
      <point x="548" y="44"/>
      <point x="446" y="44" type="curve" smooth="yes"/>
      <point x="297" y="44"/>
      <point x="183" y="174"/>
      <point x="183" y="368" type="curve" smooth="yes"/>
      <point x="183" y="547"/>
      <point x="283" y="629"/>
      <point x="415" y="629" type="curve" smooth="yes"/>
      <point x="473" y="629"/>
      <point x="529" y="613"/>
      <point x="561" y="588" type="curve" smooth="yes"/>
      <point x="591" y="564"/>
      <point x="600" y="529"/>
    </contour>
  </outline>
</glyph>
<glyph name="D" format="1">
  <advance width="781"/>
  <unicode hex="0044"/>
  <outline>
    <contour>
      <point x="192" y="602" type="curve"/>
      <point x="206" y="605"/>
      <point x="267" y="619"/>
      <point x="320" y="619" type="curve" smooth="yes"/>
      <point x="491" y="619"/>
      <point x="601" y="526"/>
      <point x="601" y="321" type="curve" smooth="yes"/>
      <point x="601" y="163"/>
      <point x="510" y="50"/>
      <point x="362" y="50" type="curve" smooth="yes"/>
      <point x="283" y="50"/>
      <point x="243" y="71"/>
      <point x="231" y="80" type="curve"/>
      <point x="160" y="2" type="line"/>
      <point x="207" y="2"/>
      <point x="292" y="-4"/>
      <point x="351" y="-4" type="curve" smooth="yes"/>
      <point x="572" y="-4"/>
      <point x="715" y="139"/>
      <point x="715" y="363" type="curve" smooth="yes"/>
      <point x="715" y="574"/>
      <point x="557" y="675"/>
      <point x="334" y="675" type="curve" smooth="yes"/>
      <point x="276" y="675"/>
      <point x="253" y="672"/>
      <point x="200" y="672" type="curve"/>
      <point x="200" y="662"/>
      <point x="192" y="615"/>
    </contour>
    <contour>
      <point x="252" y="4" type="line"/>
      <point x="251" y="53"/>
      <point x="250" y="100"/>
      <point x="250" y="338" type="curve" smooth="yes"/>
      <point x="250" y="600"/>
      <point x="252" y="634"/>
      <point x="253" y="672" type="curve"/>
      <point x="200" y="672" type="line"/>
      <point x="168" y="672"/>
      <point x="97" y="675"/>
      <point x="52" y="680" type="curve"/>
      <point x="52" y="666" type="line"/>
      <point x="140" y="662"/>
      <point x="150" y="637"/>
      <point x="150" y="424" type="curve" smooth="yes"/>
      <point x="150" y="248" type="line" smooth="yes"/>
      <point x="150" y="40"/>
      <point x="142" y="12"/>
      <point x="48" y="12" type="curve"/>
      <point x="48" y="-4" type="line"/>
      <point x="95" y="0"/>
      <point x="121" y="2"/>
      <point x="157" y="2" type="curve"/>
    </contour>
  </outline>
</glyph>
<glyph name="F" format="1">
  <advance width="586"/>
  <unicode hex="0046"/>
  <outline>
    <contour>
      <point x="352" y="-4" type="curve"/>
      <point x="352" y="12" type="line"/>
      <point x="260" y="12"/>
      <point x="250" y="38"/>
      <point x="250" y="248" type="curve" smooth="yes"/>
      <point x="250" y="277"/>
      <point x="251" y="310"/>
      <point x="252" y="337" type="curve"/>
      <point x="250" y="354" type="line"/>
      <point x="150" y="361" type="line"/>
      <point x="150" y="250" type="line" smooth="yes"/>
      <point x="150" y="40"/>
      <point x="143" y="12"/>
      <point x="48" y="12" type="curve"/>
      <point x="48" y="-4" type="line"/>
      <point x="101" y="0"/>
      <point x="161" y="4"/>
      <point x="200" y="4" type="curve" smooth="yes"/>
      <point x="239" y="4"/>
      <point x="301" y="0"/>
    </contour>
    <contour>
      <point x="250" y="354" type="line"/>
      <point x="249" y="440"/>
      <point x="250" y="543"/>
      <point x="251" y="628" type="curve"/>
      <point x="367" y="641" type="line"/>
      <point x="367" y="672" type="line"/>
      <point x="282" y="672"/>
      <point x="157" y="671"/>
      <point x="52" y="680" type="curve"/>
      <point x="52" y="666" type="line"/>
      <point x="139" y="662"/>
      <point x="150" y="637"/>
      <point x="150" y="424" type="curve" smooth="yes"/>
      <point x="150" y="361" type="line"/>
    </contour>
    <contour>
      <point x="219" y="316" type="line"/>
      <point x="233" y="317"/>
      <point x="271" y="319"/>
      <point x="284" y="319" type="curve" smooth="yes"/>
      <point x="343" y="319"/>
      <point x="393" y="314"/>
      <point x="426" y="292" type="curve" smooth="yes"/>
      <point x="448" y="278"/>
      <point x="464" y="256"/>
      <point x="484" y="220" type="curve"/>
      <point x="497" y="228" type="line"/>
      <point x="467" y="276"/>
      <point x="440" y="336"/>
      <point x="425" y="384" type="curve" smooth="yes"/>
      <point x="413" y="420"/>
      <point x="406" y="450"/>
      <point x="400" y="482" type="curve"/>
      <point x="384" y="481" type="line"/>
      <point x="412" y="394"/>
      <point x="375" y="375"/>
      <point x="298" y="375" type="curve" smooth="yes"/>
      <point x="273" y="375"/>
      <point x="233" y="378"/>
      <point x="219" y="379" type="curve"/>
    </contour>
    <contour>
      <point x="200" y="607" type="line" name=""/>
      <point x="220" y="610"/>
      <point x="278" y="618"/>
      <point x="309" y="618" type="curve" smooth="yes" name=""/>
      <point x="463" y="618"/>
      <point x="506" y="600"/>
      <point x="515" y="496" type="curve" name=""/>
      <point x="531" y="499" type="line" name=""/>
      <point x="508" y="588"/>
      <point x="500" y="642"/>
      <point x="509" y="698" type="curve" name=""/>
      <point x="499" y="701" type="line" name=""/>
      <point x="493" y="681"/>
      <point x="466" y="672"/>
      <point x="367" y="672" type="curve" name=""/>
      <point x="224" y="669" type="line" name=""/>
    </contour>
  </outline>
</glyph>
<glyph name="G" format="1">
  <advance width="741"/>
  <unicode hex="0047"/>
  <outline>
    <contour>
      <point x="623" y="154" type="curve" smooth="yes"/>
      <point x="623" y="284"/>
      <point x="633" y="299"/>
      <point x="694" y="302" type="curve"/>
      <point x="694" y="317" type="line"/>
      <point x="660" y="312"/>
      <point x="627" y="308"/>
      <point x="587" y="308" type="curve" smooth="yes"/>
      <point x="534" y="308"/>
      <point x="474" y="311"/>
      <point x="433" y="317" type="curve"/>
      <point x="433" y="302" type="line"/>
      <point x="519" y="297"/>
      <point x="532" y="271"/>
      <point x="532" y="128" type="curve" smooth="yes"/>
      <point x="532" y="95"/>
      <point x="531" y="68"/>
      <point x="530" y="40" type="curve" smooth="yes"/>
      <point x="529" y="24"/>
      <point x="497" y="16"/>
      <point x="447" y="23" type="curve"/>
      <point x="447" y="8" type="line"/>
      <point x="484" y="4"/>
      <point x="506" y="12"/>
      <point x="555" y="12" type="curve" smooth="yes"/>
      <point x="581" y="12"/>
      <point x="610" y="8"/>
      <point x="627" y="11" type="curve"/>
      <point x="627" y="29" type="line"/>
      <point x="622" y="52"/>
      <point x="623" y="107"/>
    </contour>
    <contour>
      <point x="627" y="11" type="curve"/>
      <point x="613" y="13"/>
      <point x="603" y="43"/>
      <point x="603" y="51" type="curve" smooth="yes"/>
      <point x="603" y="92"/>
      <point x="609" y="108"/>
      <point x="618" y="126" type="curve"/>
      <point x="602" y="126" type="line"/>
      <point x="575" y="69"/>
      <point x="534" y="44"/>
      <point x="467" y="44" type="curve" smooth="yes"/>
      <point x="283" y="44"/>
      <point x="187" y="197"/>
      <point x="187" y="354" type="curve" smooth="yes"/>
      <point x="187" y="548"/>
      <point x="294" y="629"/>
      <point x="431" y="629" type="curve" smooth="yes"/>
      <point x="493" y="629"/>
      <point x="549" y="611"/>
      <point x="584" y="586" type="curve" smooth="yes"/>
      <point x="615" y="562"/>
      <point x="624" y="528"/>
      <point x="622" y="475" type="curve"/>
      <point x="637" y="478" type="line"/>
      <point x="633" y="517"/>
      <point x="632" y="548"/>
      <point x="632" y="574" type="curve" smooth="yes"/>
      <point x="632" y="627"/>
      <point x="640" y="664"/>
      <point x="650" y="686" type="curve"/>
      <point x="640" y="691" type="line"/>
      <point x="636" y="680"/>
      <point x="620" y="676"/>
      <point x="603" y="676" type="curve" smooth="yes"/>
      <point x="572" y="676"/>
      <point x="510" y="684"/>
      <point x="439" y="684" type="curve" smooth="yes"/>
      <point x="191" y="684"/>
      <point x="67" y="523"/>
      <point x="67" y="345" type="curve" smooth="yes"/>
      <point x="67" y="147"/>
      <point x="212" y="-11"/>
      <point x="448" y="-11" type="curve" smooth="yes"/>
      <point x="501" y="-11"/>
      <point x="584" y="-2"/>
    </contour>
  </outline>
</glyph>
<glyph name="H" format="1">
  <advance width="760"/>
  <unicode hex="0048"/>
  <outline>
    <contour>
      <point x="520" y="402" type="line"/>
      <point x="485.573822297" y="400.398782432"/>
      <point x="437.948717949" y="399.0"/>
      <point x="392" y="399" type="curve" smooth="yes"/>
      <point x="353.766871166" y="399.0"/>
      <point x="284.766552931" y="400.134726961"/>
      <point x="240" y="402" type="curve"/>
      <point x="240" y="338" type="line"/>
      <point x="278.880217962" y="338.925719475"/>
      <point x="333.493243243" y="340.0"/>
      <point x="377" y="340" type="curve" smooth="yes"/>
      <point x="427.916666667" y="340.0"/>
      <point x="483.223039352" y="338.817265792"/>
      <point x="520" y="338" type="curve"/>
    </contour>
    <contour>
      <point x="240" y="424" type="line" smooth="yes"/>
      <point x="240" y="638"/>
      <point x="251" y="662"/>
      <point x="338" y="666" type="curve"/>
      <point x="338" y="680" type="line"/>
      <point x="295" y="675"/>
      <point x="222" y="672"/>
      <point x="190" y="672" type="curve" smooth="yes"/>
      <point x="159" y="672"/>
      <point x="85" y="675"/>
      <point x="42" y="680" type="curve"/>
      <point x="42" y="666" type="line"/>
      <point x="129" y="662"/>
      <point x="140" y="638"/>
      <point x="140" y="424" type="curve" smooth="yes"/>
      <point x="140" y="248" type="line" smooth="yes"/>
      <point x="140" y="39"/>
      <point x="132" y="12"/>
      <point x="38" y="12" type="curve"/>
      <point x="38" y="-4" type="line"/>
      <point x="91" y="0"/>
      <point x="151" y="4"/>
      <point x="190" y="4" type="curve" smooth="yes"/>
      <point x="229" y="4"/>
      <point x="291" y="0"/>
      <point x="342" y="-4" type="curve"/>
      <point x="342" y="12" type="line"/>
      <point x="248" y="12"/>
      <point x="240" y="39"/>
      <point x="240" y="248" type="curve" smooth="yes"/>
    </contour>
    <contour>
      <point x="620" y="424" type="line" smooth="yes"/>
      <point x="620" y="638"/>
      <point x="631" y="662"/>
      <point x="718" y="666" type="curve"/>
      <point x="718" y="680" type="line"/>
      <point x="675" y="675"/>
      <point x="602" y="672"/>
      <point x="570" y="672" type="curve" smooth="yes"/>
      <point x="539" y="672"/>
      <point x="465" y="675"/>
      <point x="422" y="680" type="curve"/>
      <point x="422" y="666" type="line"/>
      <point x="509" y="662"/>
      <point x="520" y="638"/>
      <point x="520" y="424" type="curve" smooth="yes"/>
      <point x="520" y="248" type="line" smooth="yes"/>
      <point x="520" y="39"/>
      <point x="512" y="12"/>
      <point x="418" y="12" type="curve"/>
      <point x="418" y="-4" type="line"/>
      <point x="471" y="0"/>
      <point x="531" y="4"/>
      <point x="570" y="4" type="curve" smooth="yes"/>
      <point x="609" y="4"/>
      <point x="671" y="0"/>
      <point x="722" y="-4" type="curve"/>
      <point x="722" y="12" type="line"/>
      <point x="628" y="12"/>
      <point x="620" y="39"/>
      <point x="620" y="248" type="curve" smooth="yes"/>
    </contour>
  </outline>
</glyph>
<glyph name="I" format="1">
  <advance width="400"/>
  <unicode hex="0049"/>
  <outline>
    <contour>
      <point x="150" y="338" type="line"/>
      <point x="150" y="248" type="line" smooth="yes"/>
      <point x="150" y="39"/>
      <point x="142" y="12"/>
      <point x="48" y="12" type="curve"/>
      <point x="48" y="-4" type="line"/>
      <point x="101" y="0"/>
      <point x="161" y="4"/>
      <point x="200" y="4" type="curve" smooth="yes"/>
      <point x="239" y="4"/>
      <point x="301" y="0"/>
      <point x="352" y="-4" type="curve"/>
      <point x="352" y="12" type="line"/>
      <point x="258" y="12"/>
      <point x="250" y="39"/>
      <point x="250" y="248" type="curve" smooth="yes"/>
      <point x="250" y="338" type="line"/>
    </contour>
    <contour>
      <point x="250" y="424" type="line" smooth="yes"/>
      <point x="250" y="638"/>
      <point x="261" y="662"/>
      <point x="348" y="666" type="curve"/>
      <point x="348" y="680" type="line"/>
      <point x="305" y="675"/>
      <point x="232" y="672"/>
      <point x="200" y="672" type="curve" smooth="yes"/>
      <point x="169" y="672"/>
      <point x="95" y="675"/>
      <point x="52" y="680" type="curve"/>
      <point x="52" y="666" type="line"/>
      <point x="139" y="662"/>
      <point x="150" y="638"/>
      <point x="150" y="424" type="curve" smooth="yes"/>
      <point x="150" y="338" type="line"/>
      <point x="250" y="338" type="line"/>
    </contour>
  </outline>
</glyph>
<glyph name="J" format="1">
  <advance width="518"/>
  <unicode hex="004A"/>
  <outline>
    <contour>
      <point x="194" y="42" type="curve" smooth="yes"/>
      <point x="259" y="42"/>
      <point x="298" y="85"/>
      <point x="298" y="215" type="curve" smooth="yes"/>
      <point x="298" y="356" type="line"/>
      <point x="398" y="356" type="line"/>
      <point x="398" y="193" type="line" smooth="yes"/>
      <point x="398" y="34"/>
      <point x="302" y="-6"/>
      <point x="199" y="-6" type="curve" smooth="yes"/>
      <point x="160" y="-6"/>
      <point x="93" y="2"/>
      <point x="67" y="2" type="curve" smooth="yes"/>
      <point x="53" y="2"/>
      <point x="44" y="-1"/>
      <point x="41" y="-4" type="curve"/>
      <point x="32" y="-1" type="line"/>
      <point x="38" y="13"/>
      <point x="44" y="86"/>
      <point x="10" y="199" type="curve"/>
      <point x="24" y="204" type="line"/>
      <point x="42" y="85"/>
      <point x="128" y="42"/>
    </contour>
    <contour>
      <point x="398" y="424" type="curve" smooth="yes"/>
      <point x="398" y="320" type="line"/>
      <point x="298" y="320" type="line"/>
      <point x="298" y="424" type="line" smooth="yes"/>
      <point x="298" y="638"/>
      <point x="286" y="662"/>
      <point x="194" y="666" type="curve"/>
      <point x="194" y="680" type="line"/>
      <point x="239" y="675"/>
      <point x="316" y="672"/>
      <point x="348" y="672" type="curve" smooth="yes"/>
      <point x="379" y="672"/>
      <point x="449" y="675"/>
      <point x="490" y="680" type="curve"/>
      <point x="490" y="666" type="line"/>
      <point x="408" y="662"/>
      <point x="398" y="638"/>
    </contour>
  </outline>
</glyph>
<glyph name="L" format="1">
  <advance width="577"/>
  <unicode hex="004C"/>
  <outline>
    <contour>
      <point x="48" y="-4" type="line"/>
      <point x="106" y="1"/>
      <point x="155" y="0"/>
      <point x="214" y="0" type="curve"/>
      <point x="257" y="0" type="line"/>
      <point x="252" y="112"/>
      <point x="250" y="233"/>
      <point x="250" y="356" type="curve" smooth="yes"/>
      <point x="250" y="649"/>
      <point x="256" y="659"/>
      <point x="348" y="666" type="curve"/>
      <point x="348" y="680" type="line"/>
      <point x="305" y="675"/>
      <point x="232" y="672"/>
      <point x="200" y="672" type="curve" smooth="yes"/>
      <point x="168" y="672"/>
      <point x="97" y="675"/>
      <point x="52" y="680" type="curve"/>
      <point x="52" y="666" type="line"/>
      <point x="143" y="662"/>
      <point x="150" y="633"/>
      <point x="150" y="408" type="curve" smooth="yes"/>
      <point x="150" y="276" type="line" smooth="yes"/>
      <point x="150" y="32"/>
      <point x="143" y="13"/>
      <point x="48" y="12" type="curve"/>
    </contour>
    <contour>
      <point x="265" y="0"/>
      <point x="391" y="0"/>
      <point x="513" y="-4" type="curve"/>
      <point x="515" y="10" type="line"/>
      <point x="516" y="49"/>
      <point x="539" y="134"/>
      <point x="552" y="169" type="curve"/>
      <point x="537" y="175" type="line"/>
      <point x="518" y="79"/>
      <point x="475" y="53"/>
      <point x="366" y="53" type="curve" smooth="yes"/>
      <point x="314" y="53"/>
      <point x="257" y="62"/>
      <point x="191" y="86" type="curve"/>
      <point x="154" y="0" type="line"/>
    </contour>
  </outline>
</glyph>
<glyph name="M" format="1">
  <advance width="910"/>
  <unicode hex="004D"/>
  <outline>
    <contour>
      <point x="452" y="50" type="line"/>
      <point x="488" y="206" type="line"/>
      <point x="472" y="235"/>
      <point x="451" y="275"/>
      <point x="431" y="317" type="curve" smooth="yes"/>
      <point x="340" y="503"/>
      <point x="291" y="643"/>
      <point x="292" y="669" type="curve"/>
      <point x="171" y="632" type="line"/>
      <point x="181" y="609" type="line"/>
      <point x="221" y="531"/>
      <point x="313" y="340"/>
      <point x="373" y="204" type="curve" smooth="yes"/>
      <point x="440" y="50" type="line"/>
    </contour>
    <contour>
      <point x="452" y="50" type="line"/>
      <point x="491" y="168"/>
      <point x="666" y="559"/>
      <point x="683" y="587" type="curve"/>
      <point x="670" y="658" type="line"/>
      <point x="620" y="670" type="line"/>
      <point x="619" y="631"/>
      <point x="593" y="554"/>
      <point x="558" y="470" type="curve" smooth="yes"/>
      <point x="517" y="367"/>
      <point x="463" y="254"/>
      <point x="429" y="187" type="curve"/>
    </contour>
    <contour>
      <point x="637" y="614" type="line"/>
      <point x="653" y="487"/>
      <point x="665" y="355"/>
      <point x="668" y="293" type="curve" smooth="yes"/>
      <point x="678" y="28"/>
      <point x="668" y="14"/>
      <point x="586" y="12" type="curve"/>
      <point x="586" y="-4" type="line"/>
      <point x="623" y="0"/>
      <point x="684" y="4"/>
      <point x="732" y="4" type="curve" smooth="yes"/>
      <point x="774" y="4"/>
      <point x="844" y="0"/>
      <point x="879" y="-4" type="curve"/>
      <point x="879" y="12" type="line"/>
      <point x="791" y="14"/>
      <point x="778" y="32"/>
      <point x="763" y="320" type="curve" smooth="yes"/>
      <point x="760" y="395" type="line" smooth="yes"/>
      <point x="748" y="633"/>
      <point x="759" y="658"/>
      <point x="858" y="666" type="curve"/>
      <point x="858" y="680" type="line"/>
      <point x="825" y="675"/>
      <point x="763" y="666"/>
      <point x="700" y="666" type="curve" smooth="yes"/>
      <point x="661" y="666"/>
      <point x="637" y="667"/>
      <point x="620" y="670" type="curve"/>
      <point x="624" y="643" type="line"/>
    </contour>
    <contour>
      <point x="295" y="-4" type="curve"/>
      <point x="295" y="12" type="line"/>
      <point x="219" y="13"/>
      <point x="207" y="41"/>
      <point x="217" y="290" type="curve" smooth="yes"/>
      <point x="218" y="329" type="line" smooth="yes"/>
      <point x="224" y="487"/>
      <point x="230" y="554"/>
      <point x="234" y="600" type="curve"/>
      <point x="292" y="669" type="line"/>
      <point x="270" y="665"/>
      <point x="241" y="666"/>
      <point x="211" y="666" type="curve" smooth="yes"/>
      <point x="162" y="666"/>
      <point x="90" y="674"/>
      <point x="51" y="680" type="curve"/>
      <point x="51" y="666" type="line"/>
      <point x="143" y="659"/>
      <point x="159" y="635"/>
      <point x="152" y="380" type="curve" smooth="yes"/>
      <point x="151" y="320" type="line" smooth="yes"/>
      <point x="143" y="37"/>
      <point x="122" y="13"/>
      <point x="36" y="12" type="curve"/>
      <point x="36" y="-4" type="line"/>
      <point x="69" y="0"/>
      <point x="128" y="4"/>
      <point x="172" y="4" type="curve" smooth="yes"/>
      <point x="222" y="4"/>
      <point x="259" y="0"/>
    </contour>
  </outline>
</glyph>
<glyph name="O" format="1">
  <advance width="795"/>
  <unicode hex="004F"/>
  <outline>
    <contour>
      <point x="181" y="358" type="curve" smooth="yes"/>
      <point x="181" y="538"/>
      <point x="262" y="642"/>
      <point x="390" y="642" type="curve" smooth="yes"/>
      <point x="521" y="642"/>
      <point x="615" y="507"/>
      <point x="615" y="318" type="curve" smooth="yes"/>
      <point x="615" y="118"/>
      <point x="527" y="32"/>
      <point x="409" y="32" type="curve" smooth="yes"/>
      <point x="267" y="32"/>
      <point x="181" y="184"/>
    </contour>
    <contour>
      <point x="66" y="338" type="curve" smooth="yes"/>
      <point x="66" y="126"/>
      <point x="204" y="-24"/>
      <point x="398" y="-24" type="curve" smooth="yes"/>
      <point x="581" y="-24"/>
      <point x="729" y="111"/>
      <point x="729" y="353" type="curve" smooth="yes"/>
      <point x="729" y="540"/>
      <point x="604" y="700"/>
      <point x="405" y="700" type="curve" smooth="yes"/>
      <point x="213" y="700"/>
      <point x="66" y="555"/>
    </contour>
  </outline>
</glyph>
<glyph name="P" format="1">
  <advance width="621"/>
  <unicode hex="0050"/>
  <outline>
    <contour>
      <point x="205" y="609" type="line"/>
      <point x="221" y="613"/>
      <point x="259" y="624"/>
      <point x="311" y="624" type="curve" smooth="yes"/>
      <point x="411" y="624"/>
      <point x="481" y="564"/>
      <point x="481" y="459" type="curve" smooth="yes"/>
      <point x="481" y="359"/>
      <point x="417" y="288"/>
      <point x="346" y="288" type="curve" smooth="yes"/>
      <point x="332" y="288"/>
      <point x="322" y="289"/>
      <point x="314" y="291" type="curve"/>
      <point x="311" y="279" type="line"/>
      <point x="325" y="275"/>
      <point x="352" y="269"/>
      <point x="377" y="269" type="curve" smooth="yes"/>
      <point x="485" y="269"/>
      <point x="587" y="344"/>
      <point x="587" y="485" type="curve" smooth="yes"/>
      <point x="587" y="623"/>
      <point x="463" y="676"/>
      <point x="333" y="676" type="curve" smooth="yes"/>
      <point x="294" y="676"/>
      <point x="245" y="672"/>
      <point x="188" y="672" type="curve"/>
    </contour>
    <contour>
      <point x="250" y="317" type="line"/>
      <point x="250" y="436"/>
      <point x="251" y="573"/>
      <point x="254" y="672" type="curve"/>
      <point x="188" y="672" type="line"/>
      <point x="159" y="672"/>
      <point x="95" y="675"/>
      <point x="52" y="680" type="curve"/>
      <point x="52" y="666" type="line"/>
      <point x="142" y="663"/>
      <point x="150" y="630"/>
      <point x="150" y="424" type="curve" smooth="yes"/>
      <point x="150" y="317" type="line"/>
    </contour>
    <contour>
      <point x="150" y="338" type="line"/>
      <point x="150" y="248" type="line" smooth="yes"/>
      <point x="150" y="39"/>
      <point x="142" y="12"/>
      <point x="48" y="12" type="curve"/>
      <point x="48" y="-4" type="line"/>
      <point x="101" y="0"/>
      <point x="161" y="4"/>
      <point x="200" y="4" type="curve" smooth="yes"/>
      <point x="239" y="4"/>
      <point x="301" y="0"/>
      <point x="352" y="-4" type="curve"/>
      <point x="352" y="12" type="line"/>
      <point x="258" y="12"/>
      <point x="250" y="39"/>
      <point x="250" y="248" type="curve" smooth="yes"/>
      <point x="250" y="338" type="line"/>
    </contour>
  </outline>
</glyph>
<glyph name="Q" format="1">
  <advance width="731"/>
  <unicode hex="0051"/>
  <outline>
    <contour>
      <point x="287" y="6" type="line"/>
      <point x="303" y="-15"/>
      <point x="359.423615454" y="-79.4156227092"/>
      <point x="412" y="-131" type="curve" smooth="yes"/>
      <point x="484.472951454" y="-202.466382684"/>
      <point x="543.0" y="-240.0"/>
      <point x="601" y="-240" type="curve" smooth="yes"/>
      <point x="689" y="-240"/>
      <point x="787" y="-202"/>
      <point x="831" y="-160" type="curve"/>
      <point x="821" y="-145" type="line"/>
      <point x="807" y="-165"/>
      <point x="768" y="-186"/>
      <point x="721" y="-186" type="curve" smooth="yes"/>
      <point x="667" y="-186"/>
      <point x="604" y="-172"/>
      <point x="534" y="-130" type="curve" smooth="yes"/>
      <point x="496.357424137" y="-108.206929763"/>
      <point x="417.840214665" y="-55.7622705995"/>
      <point x="377" y="5" type="curve"/>
    </contour>
    <component base="O" xOffset="1"/>
  </outline>
</glyph>
<glyph name="V" format="1">
  <advance width="725"/>
  <unicode hex="0056"/>
  <outline>
    <contour>
      <point x="352" y="-24" type="line"/>
      <point x="524" y="395" type="line" smooth="yes"/>
      <point x="626" y="643"/>
      <point x="665" y="665"/>
      <point x="725" y="666" type="curve"/>
      <point x="725" y="680" type="line"/>
      <point x="702" y="677"/>
      <point x="662" y="672"/>
      <point x="614" y="672" type="curve" smooth="yes"/>
      <point x="579" y="672"/>
      <point x="509" y="675"/>
      <point x="467" y="680" type="curve"/>
      <point x="467" y="666" type="line"/>
      <point x="526" y="666"/>
      <point x="537" y="644"/>
      <point x="488" y="490" type="curve" smooth="yes"/>
      <point x="456" y="391"/>
      <point x="409" y="282"/>
      <point x="366" y="186" type="curve"/>
      <point x="337" y="255"/>
      <point x="302" y="343"/>
      <point x="279" y="404" type="curve" smooth="yes"/>
      <point x="193" y="642"/>
      <point x="216" y="664"/>
      <point x="292" y="666" type="curve"/>
      <point x="292" y="680" type="line"/>
      <point x="260" y="676"/>
      <point x="209" y="672"/>
      <point x="161" y="672" type="curve" smooth="yes"/>
      <point x="79" y="672"/>
      <point x="36" y="676"/>
      <point x="0" y="680" type="curve"/>
      <point x="0" y="666" type="line"/>
      <point x="59" y="668"/>
      <point x="84" y="637"/>
      <point x="193" y="356" type="curve" smooth="yes"/>
      <point x="340" y="-24" type="line"/>
    </contour>
  </outline>
</glyph>
<glyph name="W" format="1">
  <advance width="992"/>
  <unicode hex="0057"/>
  <outline>
    <contour>
      <point x="10" y="666" type="line"/>
      <point x="89" y="666"/>
      <point x="109" y="620"/>
      <point x="183" y="324" type="curve" smooth="yes"/>
      <point x="270" y="-24" type="line"/>
      <point x="284" y="-24" type="line"/>
      <point x="332" y="155" type="line"/>
      <point x="299" y="264"/>
      <point x="275" y="361"/>
      <point x="256" y="440" type="curve" smooth="yes"/>
      <point x="212" y="623"/>
      <point x="218" y="665"/>
      <point x="295" y="666" type="curve"/>
      <point x="295" y="680" type="line"/>
      <point x="255" y="674"/>
      <point x="194" y="672"/>
      <point x="151" y="672" type="curve" smooth="yes"/>
      <point x="126" y="672"/>
      <point x="38" y="676"/>
      <point x="10" y="680" type="curve"/>
    </contour>
    <contour>
      <point x="714" y="-24" type="line"/>
      <point x="839" y="413" type="line" smooth="yes"/>
      <point x="903" y="638"/>
      <point x="929" y="664"/>
      <point x="992" y="666" type="curve"/>
      <point x="992" y="680" type="line"/>
      <point x="973" y="677"/>
      <point x="932" y="672"/>
      <point x="897" y="672" type="curve" smooth="yes"/>
      <point x="857" y="672"/>
      <point x="782" y="675"/>
      <point x="741" y="680" type="curve"/>
      <point x="741" y="666" type="line"/>
      <point x="821" y="663"/>
      <point x="827" y="641"/>
      <point x="764" y="393" type="curve" smooth="yes"/>
      <point x="753" y="349"/>
      <point x="712" y="218"/>
      <point x="667" y="83" type="curve"/>
    </contour>
    <contour>
      <point x="284" y="-24" type="line"/>
      <point x="349" y="127" type="line" smooth="yes"/>
      <point x="420" y="294"/>
      <point x="491" y="420"/>
      <point x="552" y="546" type="curve"/>
      <point x="517" y="669" type="line"/>
      <point x="485" y="593" type="line" smooth="yes"/>
      <point x="373" y="320"/>
      <point x="303" y="206"/>
      <point x="258" y="120" type="curve"/>
    </contour>
    <contour>
      <point x="488" y="495" type="line"/>
      <point x="565" y="324"/>
      <point x="612" y="195"/>
      <point x="700" y="-24" type="curve"/>
      <point x="714" y="-24" type="line"/>
      <point x="749" y="138" type="line"/>
      <point x="690" y="257"/>
      <point x="607" y="462"/>
      <point x="531" y="669" type="curve"/>
      <point x="517" y="669" type="line"/>
    </contour>
  </outline>
</glyph>
<glyph name="X" format="1">
  <advance width="722"/>
  <unicode hex="0058"/>
  <outline>
    <contour>
      <point x="313" y="518" type="curve" smooth="yes"/>
      <point x="247" y="634"/>
      <point x="253" y="666"/>
      <point x="311" y="666" type="curve"/>
      <point x="311" y="680" type="line"/>
      <point x="276" y="676"/>
      <point x="235" y="672"/>
      <point x="172" y="672" type="curve" smooth="yes"/>
      <point x="104" y="672"/>
      <point x="43" y="676"/>
      <point x="10" y="680" type="curve"/>
      <point x="10" y="666" type="line"/>
      <point x="77" y="666"/>
      <point x="114" y="637"/>
      <point x="233" y="459" type="curve" smooth="yes"/>
      <point x="256" y="425"/>
      <point x="313" y="335"/>
      <point x="321" y="321" type="curve"/>
      <point x="333" y="300" type="line"/>
      <point x="353" y="278"/>
      <point x="398" y="204"/>
      <point x="416" y="171" type="curve" smooth="yes"/>
      <point x="486" y="50"/>
      <point x="477" y="12"/>
      <point x="418" y="12" type="curve"/>
      <point x="418" y="-4" type="line"/>
      <point x="454" y="1"/>
      <point x="520" y="4"/>
      <point x="556" y="4" type="curve" smooth="yes"/>
      <point x="591" y="4"/>
      <point x="686" y="1"/>
      <point x="722" y="-4" type="curve"/>
      <point x="722" y="12" type="line"/>
      <point x="657" y="12"/>
      <point x="615" y="41"/>
      <point x="516" y="196" type="curve" smooth="yes"/>
      <point x="468" y="272"/>
      <point x="419" y="351"/>
      <point x="404" y="381" type="curve"/>
      <point x="390" y="400" type="line"/>
      <point x="371" y="429"/>
      <point x="337" y="476"/>
    </contour>
    <contour>
      <point x="342" y="393" type="line"/>
      <point x="320" y="351"/>
      <point x="281" y="283"/>
      <point x="232" y="204" type="curve" smooth="yes"/>
      <point x="131" y="42"/>
      <point x="84" y="12"/>
      <point x="0" y="12" type="curve"/>
      <point x="0" y="-4" type="line"/>
      <point x="26" y="-2"/>
      <point x="103" y="4"/>
      <point x="173" y="4" type="curve" smooth="yes"/>
      <point x="208" y="4"/>
      <point x="255" y="0"/>
      <point x="285" y="-4" type="curve"/>
      <point x="285" y="12" type="line"/>
      <point x="238" y="12"/>
      <point x="223" y="35"/>
      <point x="289" y="169" type="curve" smooth="yes"/>
      <point x="311" y="213"/>
      <point x="359" y="291"/>
      <point x="400" y="351" type="curve"/>
    </contour>
    <contour>
      <point x="460" y="443"/>
      <point x="481" y="480"/>
      <point x="499" y="509" type="curve" smooth="yes"/>
      <point x="571" y="627"/>
      <point x="616" y="665"/>
      <point x="686" y="666" type="curve"/>
      <point x="686" y="680" type="line"/>
      <point x="664" y="677"/>
      <point x="612" y="672"/>
      <point x="577" y="672" type="curve" smooth="yes"/>
      <point x="533" y="672"/>
      <point x="452" y="675"/>
      <point x="419" y="680" type="curve"/>
      <point x="419" y="666" type="line"/>
      <point x="478" y="666"/>
      <point x="475" y="628"/>
      <point x="426" y="519" type="curve" smooth="yes"/>
      <point x="396" y="452"/>
      <point x="367" y="412"/>
      <point x="333" y="372" type="curve"/>
      <point x="401" y="333" type="line"/>
    </contour>
  </outline>
</glyph>
<glyph name="Z" format="1">
  <advance width="624"/>
  <unicode hex="005A"/>
  <outline>
    <contour>
      <point x="54" y="-4" type="line"/>
      <point x="74" y="0"/>
      <point x="151" y="0"/>
      <point x="185" y="0" type="curve"/>
      <point x="206" y="47" type="line"/>
      <point x="291" y="208"/>
      <point x="421" y="421"/>
      <point x="521" y="589" type="curve" smooth="yes"/>
      <point x="568" y="668" type="line"/>
      <point x="566" y="680" type="line"/>
      <point x="529" y="673"/>
      <point x="405" y="672"/>
      <point x="306" y="672" type="curve"/>
      <point x="306" y="645" type="line"/>
      <point x="416" y="626" type="line"/>
      <point x="391" y="568"/>
      <point x="326" y="447"/>
      <point x="246" y="314" type="curve" smooth="yes"/>
      <point x="185" y="213"/>
      <point x="114" y="97"/>
      <point x="50" y="10" type="curve"/>
    </contour>
    <contour>
      <point x="436" y="605" type="curve"/>
      <point x="436" y="622"/>
      <point x="450" y="658"/>
      <point x="450" y="672" type="curve"/>
      <point x="306" y="672" type="line" smooth="yes"/>
      <point x="199" y="672"/>
      <point x="108" y="678"/>
      <point x="97" y="704" type="curve"/>
      <point x="85" y="702" type="line"/>
      <point x="85" y="666"/>
      <point x="77" y="571"/>
      <point x="52" y="497" type="curve"/>
      <point x="68" y="494" type="line"/>
      <point x="85" y="605"/>
      <point x="133" y="618"/>
      <point x="279" y="618" type="curve" smooth="yes"/>
      <point x="325" y="618"/>
      <point x="379" y="612"/>
    </contour>
    <contour>
      <point x="96" y="0" type="line"/>
      <point x="305" y="0"/>
      <point x="464" y="0"/>
      <point x="552" y="-4" type="curve"/>
      <point x="554" y="12" type="line"/>
      <point x="558" y="71"/>
      <point x="580" y="139"/>
      <point x="591" y="172" type="curve"/>
      <point x="576" y="178" type="line"/>
      <point x="558" y="79"/>
      <point x="490" y="55"/>
      <point x="354" y="55" type="curve" smooth="yes"/>
      <point x="291" y="55"/>
      <point x="215" y="61"/>
      <point x="138" y="88" type="curve"/>
    </contour>
  </outline>
</glyph>
<glyph name="dagger" format="1">
  <advance width="517"/>
  <unicode hex="2020"/>
  <outline>
    <contour>
      <point x="70" y="526" type="line"/>
      <point x="72" y="478"/>
      <point x="64" y="421"/>
      <point x="32" y="356" type="curve"/>
      <point x="45" y="355" type="line"/>
      <point x="65" y="402"/>
      <point x="104" y="410"/>
      <point x="256" y="410" type="curve" smooth="yes"/>
      <point x="317" y="410" type="line" smooth="yes"/>
      <point x="454" y="410"/>
      <point x="463" y="393"/>
      <point x="463" y="352" type="curve"/>
      <point x="474" y="352" type="line"/>
      <point x="470" y="403"/>
      <point x="473" y="473"/>
      <point x="492" y="526" type="curve"/>
      <point x="482" y="526" type="line"/>
      <point x="462" y="472"/>
      <point x="427" y="469"/>
      <point x="273" y="469" type="curve" smooth="yes"/>
      <point x="220" y="469" type="line" smooth="yes"/>
      <point x="91" y="469"/>
      <point x="80" y="476"/>
      <point x="80" y="526" type="curve"/>
    </contour>
    <contour>
      <point x="373" y="-10" type="curve"/>
      <point x="373" y="1" type="line"/>
      <point x="312" y="5"/>
      <point x="305" y="20"/>
      <point x="305" y="169" type="curve" smooth="yes"/>
      <point x="305" y="492" type="line" smooth="yes"/>
      <point x="305" y="643"/>
      <point x="310" y="657"/>
      <point x="366" y="664" type="curve"/>
      <point x="366" y="674" type="line"/>
      <point x="339" y="670"/>
      <point x="292" y="668"/>
      <point x="271" y="668" type="curve" smooth="yes"/>
      <point x="250" y="668"/>
      <point x="205" y="670"/>
      <point x="176" y="674" type="curve"/>
      <point x="176" y="664" type="line"/>
      <point x="233" y="657"/>
      <point x="237" y="643"/>
      <point x="237" y="492" type="curve" smooth="yes"/>
      <point x="237" y="169" type="line" smooth="yes"/>
      <point x="237" y="20"/>
      <point x="232" y="5"/>
      <point x="169" y="0" type="curve"/>
      <point x="169" y="-10" type="line"/>
      <point x="205" y="-7"/>
      <point x="245" y="-4"/>
      <point x="271" y="-4" type="curve" smooth="yes"/>
      <point x="297" y="-4"/>
      <point x="339" y="-7"/>
    </contour>
  </outline>
</glyph>
<glyph name="C.001" format="1">
  <advance width="675"/>
  <outline>
    <contour>
      <point x="573" y="475" type="curve"/>
      <point x="588" y="478" type="line"/>
      <point x="584" y="517"/>
      <point x="583" y="548"/>
      <point x="583" y="574" type="curve" smooth="yes"/>
      <point x="583" y="627"/>
      <point x="591" y="664"/>
      <point x="601" y="686" type="curve"/>
      <point x="591" y="691" type="line"/>
      <point x="587" y="679"/>
      <point x="567" y="676"/>
      <point x="547" y="676" type="curve" smooth="yes"/>
      <point x="519" y="676"/>
      <point x="459" y="684"/>
      <point x="400" y="684" type="curve" smooth="yes"/>
      <point x="170" y="684"/>
      <point x="66" y="525"/>
      <point x="66" y="354" type="curve" smooth="yes"/>
      <point x="66" y="157"/>
      <point x="183" y="-10"/>
      <point x="431" y="-10" type="curve" smooth="yes"/>
      <point x="492" y="-10"/>
      <point x="541" y="0"/>
      <point x="559" y="0" type="curve"/>
      <point x="559" y="5" type="line" smooth="yes"/>
      <point x="559" y="26"/>
      <point x="558" y="73"/>
      <point x="593" y="178" type="curve"/>
      <point x="577" y="184" type="line"/>
      <point x="560" y="86"/>
      <point x="522" y="44"/>
      <point x="424" y="44" type="curve" smooth="yes"/>
      <point x="287" y="44"/>
      <point x="183" y="175"/>
      <point x="183" y="370" type="curve" smooth="yes"/>
      <point x="183" y="548"/>
      <point x="281" y="629"/>
      <point x="397" y="629" type="curve" smooth="yes"/>
      <point x="453" y="629"/>
      <point x="507" y="614"/>
      <point x="537" y="589" type="curve" smooth="yes"/>
      <point x="567" y="565"/>
      <point x="575" y="529"/>
    </contour>
  </outline>
</glyph>
<glyph name="C.002" format="1">
  <advance width="724"/>
  <outline>
    <contour>
      <point x="541" y="-10"/>
      <point x="595" y="0"/>
      <point x="614" y="0" type="curve"/>
      <point x="614" y="5" type="line" smooth="yes"/>
      <point x="614" y="26"/>
      <point x="613" y="73"/>
      <point x="648" y="178" type="curve"/>
      <point x="632" y="184" type="line"/>
      <point x="615" y="86"/>
      <point x="573" y="44"/>
      <point x="468" y="44" type="curve" smooth="yes"/>
      <point x="306" y="44"/>
      <point x="183" y="173"/>
      <point x="183" y="365" type="curve" smooth="yes"/>
      <point x="183" y="546"/>
      <point x="285" y="629"/>
      <point x="432" y="629" type="curve" smooth="yes"/>
      <point x="493" y="629"/>
      <point x="550" y="611"/>
      <point x="584" y="586" type="curve" smooth="yes"/>
      <point x="615" y="562"/>
      <point x="624" y="528"/>
      <point x="622" y="475" type="curve"/>
      <point x="637" y="478" type="line"/>
      <point x="633" y="517"/>
      <point x="632" y="548"/>
      <point x="632" y="574" type="curve" smooth="yes"/>
      <point x="632" y="627"/>
      <point x="640" y="664"/>
      <point x="650" y="686" type="curve"/>
      <point x="640" y="691" type="line"/>
      <point x="636" y="679"/>
      <point x="616" y="676"/>
      <point x="596" y="676" type="curve" smooth="yes"/>
      <point x="567" y="676"/>
      <point x="503" y="684"/>
      <point x="441" y="684" type="curve" smooth="yes"/>
      <point x="183" y="684"/>
      <point x="66" y="523"/>
      <point x="66" y="349" type="curve" smooth="yes"/>
      <point x="66" y="155"/>
      <point x="197" y="-10"/>
      <point x="475" y="-10" type="curve" smooth="yes"/>
    </contour>
    <component base="c" xOffset="-5"/>
  </outline>
</glyph>
<glyph name="E.001" format="1">
  <advance width="603"/>
  <outline>
    <contour>
      <point x="256" y="0"/>
      <point x="382" y="0"/>
      <point x="505" y="-4" type="curve"/>
      <point x="507" y="10" type="line"/>
      <point x="508" y="49"/>
      <point x="531" y="134"/>
      <point x="544" y="169" type="curve"/>
      <point x="529" y="175" type="line"/>
      <point x="510" y="79"/>
      <point x="467" y="53"/>
      <point x="358" y="53" type="curve" smooth="yes"/>
      <point x="305" y="53"/>
      <point x="248" y="62"/>
      <point x="181" y="86" type="curve"/>
      <point x="144" y="0" type="line"/>
    </contour>
    <contour>
      <point x="207" y="0" type="curve"/>
      <point x="243" y="33" type="line"/>
      <point x="238" y="132"/>
      <point x="238.967858414" y="251.392920704"/>
      <point x="241" y="353" type="curve"/>
      <point x="237.989801133" y="471.401155429"/>
      <point x="238.917182097" y="570.426459837"/>
      <point x="243" y="648" type="curve"/>
      <point x="361" y="649" type="line"/>
      <point x="361" y="672" type="line"/>
      <point x="327.0" y="672.0"/>
      <point x="122.47964379" y="672.2429259"/>
      <point x="42" y="680" type="curve"/>
      <point x="42" y="666" type="line"/>
      <point x="132.920598301" y="657.91816904"/>
      <point x="140" y="628.0"/>
      <point x="140" y="420" type="curve" smooth="yes"/>
      <point x="140" y="245" type="line" smooth="yes"/>
      <point x="140" y="38"/>
      <point x="132" y="14"/>
      <point x="38" y="12" type="curve"/>
      <point x="38" y="-4" type="line"/>
      <point x="91" y="0"/>
      <point x="133" y="0"/>
    </contour>
    <contour>
      <point x="190" y="607" type="line" name=""/>
      <point x="213" y="610"/>
      <point x="278" y="618"/>
      <point x="313" y="618" type="curve" smooth="yes" name=""/>
      <point x="449" y="618"/>
      <point x="487" y="600"/>
      <point x="494" y="496" type="curve" name=""/>
      <point x="510" y="499" type="line" name=""/>
      <point x="491" y="583"/>
      <point x="500" y="663"/>
      <point x="509" y="698" type="curve" name=""/>
      <point x="499" y="701" type="line" name=""/>
      <point x="493" y="685"/>
      <point x="478" y="672"/>
      <point x="369" y="672" type="curve" name=""/>
      <point x="214" y="669" type="line" name=""/>
    </contour>
    <contour>
      <point x="213" y="320" type="line"/>
      <point x="224" y="321"/>
      <point x="255" y="323"/>
      <point x="265" y="323" type="curve" smooth="yes"/>
      <point x="308.330769231" y="323.0"/>
      <point x="367" y="323"/>
      <point x="396" y="307" type="curve" smooth="yes"/>
      <point x="427" y="289"/>
      <point x="438" y="265"/>
      <point x="441" y="220" type="curve"/>
      <point x="455" y="224" type="line"/>
      <point x="446" y="289"/>
      <point x="445.0" y="324.0"/>
      <point x="445" y="351" type="curve" smooth="yes"/>
      <point x="445" y="382"/>
      <point x="451" y="419"/>
      <point x="461" y="445" type="curve"/>
      <point x="446" y="448" type="line"/>
      <point x="435" y="390"/>
      <point x="399" y="380"/>
      <point x="314" y="380" type="curve" smooth="yes"/>
      <point x="293" y="380"/>
      <point x="241" y="383"/>
      <point x="213" y="384" type="curve"/>
    </contour>
  </outline>
</glyph>
<glyph name="G.001" format="1">
  <advance width="717"/>
  <outline>
    <contour>
      <point x="597" y="154" type="curve" smooth="yes"/>
      <point x="597" y="284"/>
      <point x="607" y="299"/>
      <point x="669" y="302" type="curve"/>
      <point x="669" y="317" type="line"/>
      <point x="635" y="312"/>
      <point x="602" y="308"/>
      <point x="562" y="308" type="curve" smooth="yes"/>
      <point x="509" y="308"/>
      <point x="449" y="311"/>
      <point x="408" y="317" type="curve"/>
      <point x="408" y="302" type="line"/>
      <point x="493" y="297"/>
      <point x="506" y="271"/>
      <point x="506" y="128" type="curve" smooth="yes"/>
      <point x="506" y="95"/>
      <point x="505" y="68"/>
      <point x="504" y="40" type="curve" smooth="yes"/>
      <point x="503" y="24"/>
      <point x="472" y="16"/>
      <point x="422" y="23" type="curve"/>
      <point x="422" y="8" type="line"/>
      <point x="459" y="4"/>
      <point x="481" y="12"/>
      <point x="529" y="12" type="curve" smooth="yes"/>
      <point x="555" y="12"/>
      <point x="584" y="8"/>
      <point x="601" y="11" type="curve"/>
      <point x="601" y="29" type="line"/>
      <point x="597" y="52"/>
      <point x="597" y="107"/>
    </contour>
    <contour>
      <point x="601" y="11" type="curve"/>
      <point x="587" y="13"/>
      <point x="577" y="43"/>
      <point x="577" y="51" type="curve" smooth="yes"/>
      <point x="577" y="92"/>
      <point x="583" y="108"/>
      <point x="592" y="126" type="curve"/>
      <point x="576" y="126" type="line"/>
      <point x="549" y="69"/>
      <point x="509" y="44"/>
      <point x="442" y="44" type="curve" smooth="yes"/>
      <point x="271" y="44"/>
      <point x="188" y="202"/>
      <point x="188" y="355" type="curve" smooth="yes"/>
      <point x="188" y="548"/>
      <point x="290" y="629"/>
      <point x="421" y="629" type="curve" smooth="yes"/>
      <point x="478" y="629"/>
      <point x="529" y="610"/>
      <point x="562" y="586" type="curve" smooth="yes"/>
      <point x="593" y="562"/>
      <point x="602" y="528"/>
      <point x="600" y="475" type="curve"/>
      <point x="615" y="478" type="line"/>
      <point x="611" y="517"/>
      <point x="610" y="548"/>
      <point x="610" y="574" type="curve" smooth="yes"/>
      <point x="610" y="627"/>
      <point x="618" y="664"/>
      <point x="628" y="686" type="curve"/>
      <point x="618" y="691" type="line"/>
      <point x="614" y="680"/>
      <point x="598" y="676"/>
      <point x="581" y="676" type="curve" smooth="yes"/>
      <point x="551" y="676"/>
      <point x="490" y="684"/>
      <point x="421" y="684" type="curve" smooth="yes"/>
      <point x="184" y="684"/>
      <point x="66" y="523"/>
      <point x="66" y="346" type="curve" smooth="yes"/>
      <point x="66" y="156"/>
      <point x="202" y="-11"/>
      <point x="423" y="-11" type="curve" smooth="yes"/>
      <point x="476" y="-11"/>
      <point x="558" y="-2"/>
    </contour>
  </outline>
</glyph>
<glyph name="G.002" format="1">
  <advance width="764"/>
  <outline>
    <contour>
      <point x="646" y="154" type="curve" smooth="yes"/>
      <point x="646" y="284"/>
      <point x="656" y="299"/>
      <point x="716" y="302" type="curve"/>
      <point x="716" y="317" type="line"/>
      <point x="682" y="312"/>
      <point x="649" y="308"/>
      <point x="609" y="308" type="curve" smooth="yes"/>
      <point x="556" y="308"/>
      <point x="496" y="311"/>
      <point x="455" y="317" type="curve"/>
      <point x="455" y="302" type="line"/>
      <point x="542" y="297"/>
      <point x="555" y="271"/>
      <point x="555" y="128" type="curve" smooth="yes"/>
      <point x="555" y="95"/>
      <point x="554" y="68"/>
      <point x="553" y="40" type="curve" smooth="yes"/>
      <point x="552" y="24"/>
      <point x="520" y="16"/>
      <point x="469" y="23" type="curve"/>
      <point x="469" y="8" type="line"/>
      <point x="507" y="4"/>
      <point x="529" y="12"/>
      <point x="578" y="12" type="curve" smooth="yes"/>
      <point x="604" y="12"/>
      <point x="633" y="8"/>
      <point x="650" y="11" type="curve"/>
      <point x="650" y="29" type="line"/>
      <point x="646" y="52"/>
      <point x="646" y="107"/>
    </contour>
    <contour>
      <point x="650" y="11" type="curve"/>
      <point x="636" y="13"/>
      <point x="626" y="43"/>
      <point x="626" y="51" type="curve" smooth="yes"/>
      <point x="626" y="92"/>
      <point x="632" y="108"/>
      <point x="641" y="126" type="curve"/>
      <point x="625" y="126" type="line"/>
      <point x="598" y="69"/>
      <point x="557" y="44"/>
      <point x="489" y="44" type="curve" smooth="yes"/>
      <point x="293" y="44"/>
      <point x="183" y="192"/>
      <point x="183" y="353" type="curve" smooth="yes"/>
      <point x="183" y="547"/>
      <point x="296" y="629"/>
      <point x="439" y="629" type="curve" smooth="yes"/>
      <point x="505" y="629"/>
      <point x="567" y="612"/>
      <point x="603" y="586" type="curve" smooth="yes"/>
      <point x="634" y="562"/>
      <point x="643" y="528"/>
      <point x="641" y="475" type="curve"/>
      <point x="656" y="478" type="line"/>
      <point x="652" y="517"/>
      <point x="651" y="548"/>
      <point x="651" y="574" type="curve" smooth="yes"/>
      <point x="651" y="627"/>
      <point x="659" y="664"/>
      <point x="669" y="686" type="curve"/>
      <point x="659" y="691" type="line"/>
      <point x="655" y="680"/>
      <point x="639" y="676"/>
      <point x="622" y="676" type="curve" smooth="yes"/>
      <point x="591" y="676"/>
      <point x="527" y="684"/>
      <point x="455" y="684" type="curve" smooth="yes"/>
      <point x="196" y="684"/>
      <point x="66" y="522"/>
      <point x="66" y="344" type="curve" smooth="yes"/>
      <point x="66" y="137"/>
      <point x="219" y="-11"/>
      <point x="470" y="-11" type="curve" smooth="yes"/>
      <point x="524" y="-11"/>
      <point x="607" y="-2"/>
    </contour>
  </outline>
</glyph>
<glyph name="G.003" format="1">
  <advance width="732"/>
  <outline>
    <contour>
      <point x="606" y="135" type="curve" smooth="yes"/>
      <point x="606" y="275"/>
      <point x="615" y="302"/>
      <point x="687" y="302" type="curve"/>
      <point x="687" y="317" type="line"/>
      <point x="632" y="309"/>
      <point x="597" y="309"/>
      <point x="558" y="309" type="curve" smooth="yes"/>
      <point x="507" y="309"/>
      <point x="452" y="313"/>
      <point x="416" y="317" type="curve"/>
      <point x="416" y="302" type="line"/>
      <point x="497" y="297"/>
      <point x="510" y="283"/>
      <point x="510" y="196" type="curve" smooth="yes"/>
      <point x="510" y="151" type="line"/>
      <point x="527" y="151" type="line"/>
      <point x="537" y="17"/>
      <point x="627" y="-4"/>
      <point x="678" y="-4" type="curve"/>
      <point x="678" y="12" type="line"/>
      <point x="639" y="6"/>
      <point x="606" y="44"/>
    </contour>
    <contour>
      <point x="579" y="121" type="curve"/>
      <point x="578" y="196" type="line"/>
      <point x="510" y="196" type="line"/>
      <point x="510" y="97"/>
      <point x="468" y="50"/>
      <point x="393" y="50" type="curve" smooth="yes"/>
      <point x="277" y="50"/>
      <point x="183" y="186"/>
      <point x="183" y="353" type="curve" smooth="yes"/>
      <point x="183" y="547"/>
      <point x="280" y="629"/>
      <point x="412" y="629" type="curve" smooth="yes"/>
      <point x="468" y="629"/>
      <point x="529" y="612"/>
      <point x="566" y="586" type="curve" smooth="yes"/>
      <point x="597" y="562"/>
      <point x="606" y="528"/>
      <point x="604" y="475" type="curve"/>
      <point x="619" y="478" type="line"/>
      <point x="615" y="517"/>
      <point x="614" y="548"/>
      <point x="614" y="574" type="curve" smooth="yes"/>
      <point x="614" y="627"/>
      <point x="622" y="664"/>
      <point x="632" y="686" type="curve"/>
      <point x="622" y="691" type="line"/>
      <point x="618" y="680"/>
      <point x="602" y="676"/>
      <point x="585" y="676" type="curve" smooth="yes"/>
      <point x="555" y="676"/>
      <point x="492" y="684"/>
      <point x="422" y="684" type="curve" smooth="yes"/>
      <point x="185" y="684"/>
      <point x="66" y="522"/>
      <point x="66" y="344" type="curve" smooth="yes"/>
      <point x="66" y="138"/>
      <point x="189" y="-10"/>
      <point x="378" y="-10" type="curve" smooth="yes"/>
      <point x="484" y="-10"/>
      <point x="555" y="42"/>
    </contour>
  </outline>
</glyph>
<glyph name="G.004" format="1">
  <advance width="755"/>
  <outline>
    <contour>
      <point x="629" y="135" type="curve" smooth="yes"/>
      <point x="629" y="275"/>
      <point x="638" y="302"/>
      <point x="710" y="302" type="curve"/>
      <point x="710" y="317" type="line"/>
      <point x="655" y="309"/>
      <point x="620" y="309"/>
      <point x="581" y="309" type="curve" smooth="yes"/>
      <point x="530" y="309"/>
      <point x="475" y="313"/>
      <point x="439" y="317" type="curve"/>
      <point x="439" y="302" type="line"/>
      <point x="520" y="297"/>
      <point x="533" y="283"/>
      <point x="533" y="196" type="curve" smooth="yes"/>
      <point x="533" y="151" type="line"/>
      <point x="550" y="151" type="line"/>
      <point x="560" y="17"/>
      <point x="650" y="-4"/>
      <point x="701" y="-4" type="curve"/>
      <point x="701" y="12" type="line"/>
      <point x="662" y="6"/>
      <point x="629" y="44"/>
    </contour>
    <contour>
      <point x="602" y="121" type="curve"/>
      <point x="601" y="196" type="line"/>
      <point x="533" y="196" type="line"/>
      <point x="533" y="97"/>
      <point x="488" y="50"/>
      <point x="408" y="50" type="curve" smooth="yes"/>
      <point x="284" y="50"/>
      <point x="185" y="187"/>
      <point x="185" y="354" type="curve" smooth="yes"/>
      <point x="185" y="547"/>
      <point x="290" y="629"/>
      <point x="428" y="629" type="curve" smooth="yes"/>
      <point x="490" y="629"/>
      <point x="552" y="612"/>
      <point x="589" y="586" type="curve" smooth="yes"/>
      <point x="620" y="562"/>
      <point x="629" y="528"/>
      <point x="627" y="475" type="curve"/>
      <point x="642" y="478" type="line"/>
      <point x="638" y="517"/>
      <point x="637" y="548"/>
      <point x="637" y="574" type="curve" smooth="yes"/>
      <point x="637" y="627"/>
      <point x="645" y="664"/>
      <point x="655" y="686" type="curve"/>
      <point x="645" y="691" type="line"/>
      <point x="641" y="680"/>
      <point x="625" y="676"/>
      <point x="608" y="676" type="curve" smooth="yes"/>
      <point x="578" y="676"/>
      <point x="514" y="684"/>
      <point x="443" y="684" type="curve" smooth="yes"/>
      <point x="192" y="684"/>
      <point x="66" y="522"/>
      <point x="66" y="344" type="curve" smooth="yes"/>
      <point x="66" y="138"/>
      <point x="194" y="-10"/>
      <point x="393" y="-10" type="curve" smooth="yes"/>
      <point x="502" y="-10"/>
      <point x="578" y="42"/>
    </contour>
  </outline>
</glyph>
<glyph name="G.005" format="1">
  <advance width="778"/>
  <outline>
    <contour>
      <point x="652" y="135" type="curve" smooth="yes"/>
      <point x="652" y="275"/>
      <point x="661" y="302"/>
      <point x="733" y="302" type="curve"/>
      <point x="733" y="317" type="line"/>
      <point x="678" y="309"/>
      <point x="643" y="309"/>
      <point x="604" y="309" type="curve" smooth="yes"/>
      <point x="553" y="309"/>
      <point x="498" y="313"/>
      <point x="462" y="317" type="curve"/>
      <point x="462" y="302" type="line"/>
      <point x="543" y="297"/>
      <point x="556" y="283"/>
      <point x="556" y="196" type="curve" smooth="yes"/>
      <point x="556" y="151" type="line"/>
      <point x="573" y="151" type="line"/>
      <point x="583" y="17"/>
      <point x="673" y="-4"/>
      <point x="724" y="-4" type="curve"/>
      <point x="724" y="12" type="line"/>
      <point x="685" y="6"/>
      <point x="652" y="44"/>
    </contour>
    <contour>
      <point x="624" y="121" type="curve"/>
      <point x="624" y="196" type="line"/>
      <point x="556" y="196" type="line"/>
      <point x="556" y="97"/>
      <point x="508" y="50"/>
      <point x="422" y="50" type="curve" smooth="yes"/>
      <point x="292" y="50"/>
      <point x="186" y="189"/>
      <point x="186" y="355" type="curve" smooth="yes"/>
      <point x="186" y="548"/>
      <point x="301" y="629"/>
      <point x="444" y="629" type="curve" smooth="yes"/>
      <point x="512" y="629"/>
      <point x="575" y="612"/>
      <point x="612" y="586" type="curve" smooth="yes"/>
      <point x="643" y="562"/>
      <point x="652" y="528"/>
      <point x="650" y="475" type="curve"/>
      <point x="665" y="478" type="line"/>
      <point x="661" y="517"/>
      <point x="660" y="548"/>
      <point x="660" y="574" type="curve" smooth="yes"/>
      <point x="660" y="627"/>
      <point x="668" y="664"/>
      <point x="678" y="686" type="curve"/>
      <point x="668" y="691" type="line"/>
      <point x="664" y="680"/>
      <point x="648" y="676"/>
      <point x="631" y="676" type="curve" smooth="yes"/>
      <point x="600" y="676"/>
      <point x="536" y="684"/>
      <point x="464" y="684" type="curve" smooth="yes"/>
      <point x="199" y="684"/>
      <point x="66" y="522"/>
      <point x="66" y="344" type="curve" smooth="yes"/>
      <point x="66" y="138"/>
      <point x="200" y="-10"/>
      <point x="407" y="-10" type="curve" smooth="yes"/>
      <point x="521" y="-10"/>
      <point x="600" y="42"/>
    </contour>
  </outline>
</glyph>
<glyph name="H.001" format="1">
  <advance width="780"/>
  <outline>
    <contour>
      <point x="530" y="402" type="line"/>
      <point x="496" y="400"/>
      <point x="448" y="399"/>
      <point x="402" y="399" type="curve" smooth="yes"/>
      <point x="364" y="399"/>
      <point x="295" y="400"/>
      <point x="250" y="402" type="curve"/>
      <point x="250" y="338" type="line"/>
      <point x="289" y="339"/>
      <point x="343" y="340"/>
      <point x="387" y="340" type="curve" smooth="yes"/>
      <point x="438" y="340"/>
      <point x="493" y="339"/>
      <point x="530" y="338" type="curve"/>
    </contour>
    <contour>
      <point x="250" y="424" type="line" smooth="yes"/>
      <point x="250" y="638"/>
      <point x="261" y="662"/>
      <point x="348" y="666" type="curve"/>
      <point x="348" y="680" type="line"/>
      <point x="305" y="675"/>
      <point x="232" y="672"/>
      <point x="200" y="672" type="curve" smooth="yes"/>
      <point x="169" y="672"/>
      <point x="95" y="675"/>
      <point x="52" y="680" type="curve"/>
      <point x="52" y="666" type="line"/>
      <point x="139" y="662"/>
      <point x="150" y="638"/>
      <point x="150" y="424" type="curve" smooth="yes"/>
      <point x="150" y="248" type="line" smooth="yes"/>
      <point x="150" y="39"/>
      <point x="142" y="12"/>
      <point x="48" y="12" type="curve"/>
      <point x="48" y="-4" type="line"/>
      <point x="101" y="0"/>
      <point x="161" y="4"/>
      <point x="200" y="4" type="curve" smooth="yes"/>
      <point x="239" y="4"/>
      <point x="301" y="0"/>
      <point x="352" y="-4" type="curve"/>
      <point x="352" y="12" type="line"/>
      <point x="258" y="12"/>
      <point x="250" y="39"/>
      <point x="250" y="248" type="curve" smooth="yes"/>
    </contour>
    <contour>
      <point x="630" y="424" type="line" smooth="yes"/>
      <point x="630" y="638"/>
      <point x="641" y="662"/>
      <point x="728" y="666" type="curve"/>
      <point x="728" y="680" type="line"/>
      <point x="685" y="675"/>
      <point x="612" y="672"/>
      <point x="580" y="672" type="curve" smooth="yes"/>
      <point x="549" y="672"/>
      <point x="475" y="675"/>
      <point x="432" y="680" type="curve"/>
      <point x="432" y="666" type="line"/>
      <point x="519" y="662"/>
      <point x="530" y="638"/>
      <point x="530" y="424" type="curve" smooth="yes"/>
      <point x="530" y="248" type="line" smooth="yes"/>
      <point x="530" y="39"/>
      <point x="522" y="12"/>
      <point x="428" y="12" type="curve"/>
      <point x="428" y="-4" type="line"/>
      <point x="481" y="0"/>
      <point x="541" y="4"/>
      <point x="580" y="4" type="curve" smooth="yes"/>
      <point x="619" y="4"/>
      <point x="681" y="0"/>
      <point x="732" y="-4" type="curve"/>
      <point x="732" y="12" type="line"/>
      <point x="638" y="12"/>
      <point x="630" y="39"/>
      <point x="630" y="248" type="curve" smooth="yes"/>
    </contour>
  </outline>
</glyph>
<glyph name="J.001" format="1">
  <advance width="356"/>
  <outline>
    <contour>
      <point x="234" y="424" type="curve" smooth="yes"/>
      <point x="234" y="320" type="line"/>
      <point x="134" y="320" type="line"/>
      <point x="134" y="424" type="line" smooth="yes"/>
      <point x="134" y="638"/>
      <point x="122" y="662"/>
      <point x="30" y="666" type="curve"/>
      <point x="30" y="680" type="line"/>
      <point x="75" y="675"/>
      <point x="152" y="672"/>
      <point x="184" y="672" type="curve" smooth="yes"/>
      <point x="215" y="672"/>
      <point x="285" y="675"/>
      <point x="326" y="680" type="curve"/>
      <point x="326" y="666" type="line"/>
      <point x="244" y="662"/>
      <point x="234" y="638"/>
    </contour>
    <contour>
      <point x="-91" y="-223" type="curve" smooth="yes"/>
      <point x="50" y="-223"/>
      <point x="134" y="-160"/>
      <point x="134" y="272" type="curve" smooth="yes"/>
      <point x="134" y="365" type="line"/>
      <point x="234" y="365" type="line"/>
      <point x="234" y="161" type="line" smooth="yes"/>
      <point x="234" y="-112"/>
      <point x="117" y="-240"/>
      <point x="-73" y="-240" type="curve" smooth="yes"/>
      <point x="-95" y="-240"/>
      <point x="-117" y="-239"/>
      <point x="-138" y="-236" type="curve"/>
      <point x="-137" y="-217" type="line"/>
      <point x="-122" y="-221"/>
      <point x="-105" y="-223"/>
    </contour>
  </outline>
</glyph>
<glyph name="K.001" format="1">
  <advance width="780"/>
  <outline>
    <contour>
      <point x="269" y="349" type="line"/>
      <point x="333" y="341"/>
      <point x="372" y="302"/>
      <point x="401" y="257" type="curve" smooth="yes"/>
      <point x="446" y="189"/>
      <point x="485" y="106"/>
      <point x="526" y="48" type="curve" smooth="yes"/>
      <point x="560" y="4"/>
      <point x="594" y="-16"/>
      <point x="670" y="-16" type="curve" smooth="yes"/>
      <point x="730" y="-16"/>
      <point x="790" y="14"/>
      <point x="816" y="34" type="curve"/>
      <point x="809" y="49" type="line"/>
      <point x="800" y="38"/>
      <point x="779" y="26"/>
      <point x="751" y="26" type="curve" smooth="yes"/>
      <point x="707" y="26"/>
      <point x="652" y="51"/>
      <point x="572" y="173" type="curve" smooth="yes"/>
      <point x="517" y="257" type="line" smooth="yes"/>
      <point x="452" y="356"/>
      <point x="393" y="376"/>
      <point x="334" y="368" type="curve"/>
      <point x="269" y="353" type="line"/>
    </contour>
    <contour>
      <point x="250" y="424" type="line" smooth="yes"/>
      <point x="250" y="638"/>
      <point x="259" y="663"/>
      <point x="332" y="666" type="curve"/>
      <point x="332" y="680" type="line"/>
      <point x="294" y="676"/>
      <point x="229" y="672"/>
      <point x="200" y="672" type="curve" smooth="yes"/>
      <point x="169" y="672"/>
      <point x="95" y="675"/>
      <point x="52" y="680" type="curve"/>
      <point x="52" y="666" type="line"/>
      <point x="139" y="662"/>
      <point x="150" y="638"/>
      <point x="150" y="424" type="curve" smooth="yes"/>
      <point x="150" y="248" type="line" smooth="yes"/>
      <point x="150" y="39"/>
      <point x="142" y="12"/>
      <point x="48" y="12" type="curve"/>
      <point x="48" y="-4" type="line"/>
      <point x="101" y="0"/>
      <point x="161" y="4"/>
      <point x="200" y="4" type="curve" smooth="yes"/>
      <point x="235" y="4"/>
      <point x="290" y="0"/>
      <point x="336" y="-4" type="curve"/>
      <point x="336" y="12" type="line"/>
      <point x="257" y="12"/>
      <point x="250" y="39"/>
      <point x="250" y="248" type="curve" smooth="yes"/>
    </contour>
    <contour>
      <point x="416" y="680" type="curve"/>
      <point x="416" y="666" type="line"/>
      <point x="494" y="666"/>
      <point x="480" y="593"/>
      <point x="390" y="477" type="curve" smooth="yes"/>
      <point x="346" y="421"/>
      <point x="287" y="366"/>
      <point x="269" y="361" type="curve"/>
      <point x="269" y="349" type="line"/>
      <point x="376" y="356" type="line"/>
      <point x="417" y="419"/>
      <point x="452" y="466"/>
      <point x="489" y="512" type="curve" smooth="yes"/>
      <point x="578" y="622"/>
      <point x="609" y="664"/>
      <point x="690" y="666" type="curve"/>
      <point x="690" y="680" type="line"/>
      <point x="651" y="676"/>
      <point x="606" y="672"/>
      <point x="556" y="672" type="curve" smooth="yes"/>
      <point x="506" y="672"/>
      <point x="451" y="676"/>
    </contour>
  </outline>
</glyph>
<glyph name="M.001" format="1">
  <advance width="871"/>
  <outline>
    <contour>
      <point x="432" y="90" type="line"/>
      <point x="467" y="246" type="line"/>
      <point x="452" y="275"/>
      <point x="431" y="312"/>
      <point x="412" y="353" type="curve" smooth="yes"/>
      <point x="326" y="539"/>
      <point x="291" y="644"/>
      <point x="291" y="669" type="curve"/>
      <point x="169" y="631" type="line"/>
      <point x="179" y="609" type="line"/>
      <point x="221" y="531"/>
      <point x="294" y="380"/>
      <point x="355" y="244" type="curve" smooth="yes"/>
      <point x="420" y="90" type="line"/>
    </contour>
    <contour>
      <point x="432" y="90" type="line"/>
      <point x="471" y="208"/>
      <point x="617" y="559"/>
      <point x="634" y="587" type="curve"/>
      <point x="623" y="661" type="line"/>
      <point x="574" y="670" type="line"/>
      <point x="573" y="633"/>
      <point x="551" y="566"/>
      <point x="523" y="492" type="curve" smooth="yes"/>
      <point x="486" y="396"/>
      <point x="437" y="289"/>
      <point x="408" y="227" type="curve"/>
    </contour>
    <contour>
      <point x="589" y="614" type="line"/>
      <point x="605" y="487"/>
      <point x="620" y="355"/>
      <point x="624" y="293" type="curve" smooth="yes"/>
      <point x="640" y="33"/>
      <point x="627" y="13"/>
      <point x="547" y="12" type="curve"/>
      <point x="547" y="-4" type="line"/>
      <point x="583" y="0"/>
      <point x="643" y="4"/>
      <point x="692" y="4" type="curve" smooth="yes"/>
      <point x="734" y="4"/>
      <point x="805" y="0"/>
      <point x="840" y="-4" type="curve"/>
      <point x="840" y="12" type="line"/>
      <point x="751" y="14"/>
      <point x="742" y="33"/>
      <point x="717" y="352" type="curve" smooth="yes"/>
      <point x="713" y="403" type="line" smooth="yes"/>
      <point x="695" y="635"/>
      <point x="701" y="659"/>
      <point x="806" y="666" type="curve"/>
      <point x="806" y="680" type="line"/>
      <point x="774" y="676"/>
      <point x="714" y="666"/>
      <point x="654" y="666" type="curve" smooth="yes"/>
      <point x="614" y="666"/>
      <point x="593" y="667"/>
      <point x="574" y="670" type="curve"/>
      <point x="577" y="645" type="line"/>
    </contour>
    <contour>
      <point x="295" y="-4" type="curve"/>
      <point x="295" y="12" type="line"/>
      <point x="220" y="14"/>
      <point x="203" y="38"/>
      <point x="216" y="290" type="curve" smooth="yes"/>
      <point x="218" y="329" type="line" smooth="yes"/>
      <point x="226" y="487"/>
      <point x="227" y="554"/>
      <point x="231" y="600" type="curve"/>
      <point x="291" y="669" type="line"/>
      <point x="274" y="666"/>
      <point x="238" y="666"/>
      <point x="214" y="666" type="curve" smooth="yes"/>
      <point x="152" y="666"/>
      <point x="93" y="673"/>
      <point x="50" y="680" type="curve"/>
      <point x="50" y="666" type="line"/>
      <point x="137" y="659"/>
      <point x="162" y="644"/>
      <point x="152" y="379" type="curve" smooth="yes"/>
      <point x="150" y="309" type="line" smooth="yes"/>
      <point x="140" y="40"/>
      <point x="124" y="12"/>
      <point x="36" y="12" type="curve"/>
      <point x="36" y="-4" type="line"/>
      <point x="59" y="0"/>
      <point x="128" y="4"/>
      <point x="171" y="4" type="curve" smooth="yes"/>
      <point x="231" y="4"/>
      <point x="259" y="0"/>
    </contour>
  </outline>
</glyph>
<glyph name="M.002" format="1">
  <advance width="948"/>
  <outline>
    <contour>
      <point x="471" y="10" type="line"/>
      <point x="508" y="166" type="line"/>
      <point x="492" y="196"/>
      <point x="471" y="238"/>
      <point x="449" y="281" type="curve" smooth="yes"/>
      <point x="354" y="468"/>
      <point x="291" y="642"/>
      <point x="292" y="669" type="curve"/>
      <point x="173" y="632" type="line"/>
      <point x="183" y="609" type="line"/>
      <point x="222" y="531"/>
      <point x="331" y="301"/>
      <point x="391" y="164" type="curve" smooth="yes"/>
      <point x="459" y="10" type="line"/>
    </contour>
    <contour>
      <point x="471" y="10" type="line"/>
      <point x="510" y="128"/>
      <point x="713" y="559"/>
      <point x="730" y="587" type="curve"/>
      <point x="715" y="656" type="line"/>
      <point x="664" y="670" type="line"/>
      <point x="663" y="630"/>
      <point x="633" y="543"/>
      <point x="593" y="448" type="curve" smooth="yes"/>
      <point x="547" y="339"/>
      <point x="488" y="219"/>
      <point x="450" y="147" type="curve"/>
    </contour>
    <contour>
      <point x="683" y="614" type="line"/>
      <point x="699" y="487"/>
      <point x="709" y="355"/>
      <point x="710" y="293" type="curve" smooth="yes"/>
      <point x="715" y="24"/>
      <point x="708" y="14"/>
      <point x="625" y="12" type="curve"/>
      <point x="625" y="-4" type="line"/>
      <point x="662" y="0"/>
      <point x="724" y="4"/>
      <point x="771" y="4" type="curve" smooth="yes"/>
      <point x="814" y="4"/>
      <point x="883" y="0"/>
      <point x="917" y="-4" type="curve"/>
      <point x="917" y="12" type="line"/>
      <point x="831" y="14"/>
      <point x="813" y="31"/>
      <point x="807" y="289" type="curve" smooth="yes"/>
      <point x="805" y="388" type="line" smooth="yes"/>
      <point x="800" y="630"/>
      <point x="815" y="657"/>
      <point x="908" y="666" type="curve"/>
      <point x="908" y="680" type="line"/>
      <point x="874" y="675"/>
      <point x="810" y="666"/>
      <point x="744" y="666" type="curve" smooth="yes"/>
      <point x="706" y="666"/>
      <point x="680" y="668"/>
      <point x="664" y="670" type="curve"/>
      <point x="669" y="642" type="line"/>
    </contour>
    <contour>
      <point x="295" y="-4" type="curve"/>
      <point x="295" y="12" type="line"/>
      <point x="218" y="12"/>
      <point x="211" y="43"/>
      <point x="217" y="290" type="curve" smooth="yes"/>
      <point x="218" y="329" type="line" smooth="yes"/>
      <point x="222" y="487"/>
      <point x="233" y="554"/>
      <point x="237" y="600" type="curve"/>
      <point x="292" y="669" type="line"/>
      <point x="267" y="665"/>
      <point x="243" y="666"/>
      <point x="209" y="666" type="curve" smooth="yes"/>
      <point x="171" y="666"/>
      <point x="88" y="674"/>
      <point x="51" y="680" type="curve"/>
      <point x="51" y="666" type="line"/>
      <point x="148" y="659"/>
      <point x="157" y="626"/>
      <point x="152" y="381" type="curve" smooth="yes"/>
      <point x="151" y="331" type="line" smooth="yes"/>
      <point x="145" y="35"/>
      <point x="121" y="13"/>
      <point x="36" y="12" type="curve"/>
      <point x="36" y="-4" type="line"/>
      <point x="79" y="0"/>
      <point x="129" y="4"/>
      <point x="172" y="4" type="curve" smooth="yes"/>
      <point x="213" y="4"/>
      <point x="259" y="0"/>
    </contour>
  </outline>
</glyph>
<glyph name="N.001" format="1">
  <advance width="776"/>
  <outline>
    <contour>
      <point x="616" y="-24" type="curve"/>
      <point x="630" y="-24" type="line"/>
      <point x="629" y="15"/>
      <point x="629" y="99"/>
      <point x="629" y="248" type="curve"/>
      <point x="623" y="254"/>
      <point x="590" y="253"/>
      <point x="585" y="247" type="curve"/>
      <point x="585" y="200"/>
      <point x="588" y="183"/>
      <point x="582" y="190" type="curve" smooth="yes"/>
      <point x="508" y="276"/>
      <point x="435" y="389"/>
      <point x="381" y="464" type="curve" smooth="yes"/>
      <point x="315" y="555"/>
      <point x="257" y="638"/>
      <point x="247" y="672" type="curve"/>
      <point x="232" y="667"/>
      <point x="206" y="666"/>
      <point x="187" y="666" type="curve"/>
      <point x="169" y="606" type="line"/>
      <point x="188" y="580"/>
      <point x="184" y="561"/>
      <point x="207" y="530" type="curve" smooth="yes"/>
      <point x="297" y="414"/>
      <point x="417" y="249"/>
      <point x="541" y="79" type="curve" smooth="yes"/>
      <point x="554" y="63"/>
      <point x="600" y="4"/>
    </contour>
    <contour>
      <point x="629" y="71" type="line"/>
      <point x="631" y="308" type="line" smooth="yes"/>
      <point x="634" y="639"/>
      <point x="644" y="663"/>
      <point x="722" y="666" type="curve"/>
      <point x="722" y="680" type="line"/>
      <point x="695" y="676"/>
      <point x="645" y="672"/>
      <point x="596" y="672" type="curve" smooth="yes"/>
      <point x="565" y="672"/>
      <point x="495" y="676"/>
      <point x="465" y="680" type="curve"/>
      <point x="465" y="666" type="line"/>
      <point x="554" y="658"/>
      <point x="570" y="631"/>
      <point x="570" y="403" type="curve" smooth="yes"/>
      <point x="570" y="308"/>
      <point x="565" y="173"/>
      <point x="558" y="91" type="curve"/>
    </contour>
    <contour>
      <point x="313" y="-4" type="curve"/>
      <point x="313" y="12" type="line"/>
      <point x="219" y="16"/>
      <point x="214" y="56"/>
      <point x="214" y="265" type="curve" smooth="yes"/>
      <point x="214" y="313"/>
      <point x="217" y="486"/>
      <point x="221" y="588" type="curve"/>
      <point x="206" y="666" type="line"/>
      <point x="187" y="666" type="line" smooth="yes"/>
      <point x="137" y="666"/>
      <point x="71" y="675"/>
      <point x="32" y="680" type="curve"/>
      <point x="32" y="666" type="line"/>
      <point x="134" y="658"/>
      <point x="151" y="622"/>
      <point x="151" y="400" type="curve" smooth="yes"/>
      <point x="151" y="287" type="line" smooth="yes"/>
      <point x="151" y="56"/>
      <point x="143" y="17"/>
      <point x="47" y="12" type="curve"/>
      <point x="47" y="-4" type="line"/>
      <point x="83" y="0"/>
      <point x="143" y="4"/>
      <point x="184" y="4" type="curve" smooth="yes"/>
      <point x="225" y="4"/>
      <point x="277" y="0"/>
    </contour>
  </outline>
</glyph>
<glyph name="O.001" format="1">
  <advance width="761"/>
  <outline>
    <contour>
      <point x="184" y="357" type="curve" smooth="yes"/>
      <point x="184" y="553"/>
      <point x="259" y="644"/>
      <point x="373" y="644" type="curve" smooth="yes"/>
      <point x="492" y="644"/>
      <point x="577" y="515"/>
      <point x="577" y="325" type="curve" smooth="yes"/>
      <point x="577" y="120"/>
      <point x="507" y="32"/>
      <point x="391" y="32" type="curve" smooth="yes"/>
      <point x="260" y="32"/>
      <point x="184" y="191"/>
    </contour>
    <contour>
      <point x="66" y="345" type="curve" smooth="yes"/>
      <point x="66" y="123"/>
      <point x="201" y="-24"/>
      <point x="385" y="-24" type="curve" smooth="yes"/>
      <point x="544" y="-24"/>
      <point x="695" y="99"/>
      <point x="695" y="347" type="curve" smooth="yes"/>
      <point x="695" y="550"/>
      <point x="568" y="700"/>
      <point x="382" y="700" type="curve" smooth="yes"/>
      <point x="201" y="700"/>
      <point x="66" y="551"/>
    </contour>
  </outline>
</glyph>
<glyph name="O.002" format="1">
  <advance width="829"/>
  <outline>
    <contour>
      <point x="66" y="130"/>
      <point x="207" y="-24"/>
      <point x="410" y="-24" type="curve" smooth="yes"/>
      <point x="618" y="-24"/>
      <point x="763" y="122"/>
      <point x="763" y="359" type="curve" smooth="yes"/>
      <point x="763" y="530"/>
      <point x="639" y="700"/>
      <point x="428" y="700" type="curve" smooth="yes"/>
      <point x="225" y="700"/>
      <point x="66" y="560"/>
      <point x="66" y="330" type="curve" smooth="yes"/>
    </contour>
    <contour>
      <point x="274" y="32"/>
      <point x="177" y="177"/>
      <point x="177" y="358" type="curve" smooth="yes"/>
      <point x="177" y="524"/>
      <point x="264" y="639"/>
      <point x="406" y="639" type="curve" smooth="yes"/>
      <point x="549" y="639"/>
      <point x="652" y="498"/>
      <point x="652" y="311" type="curve" smooth="yes"/>
      <point x="652" y="116"/>
      <point x="547" y="32"/>
      <point x="427" y="32" type="curve" smooth="yes"/>
    </contour>
  </outline>
</glyph>
<glyph name="Q.001" format="1">
  <advance width="761"/>
  <outline>
    <contour>
      <point x="286" y="6" type="line"/>
      <point x="302" y="-15"/>
      <point x="358" y="-79"/>
      <point x="411" y="-131" type="curve" smooth="yes"/>
      <point x="483" y="-202"/>
      <point x="542" y="-240"/>
      <point x="600" y="-240" type="curve" smooth="yes"/>
      <point x="688" y="-240"/>
      <point x="786" y="-202"/>
      <point x="830" y="-160" type="curve"/>
      <point x="820" y="-145" type="line"/>
      <point x="806" y="-165"/>
      <point x="767" y="-186"/>
      <point x="720" y="-186" type="curve" smooth="yes"/>
      <point x="666" y="-186"/>
      <point x="603" y="-172"/>
      <point x="533" y="-130" type="curve" smooth="yes"/>
      <point x="495" y="-108"/>
      <point x="417" y="-56"/>
      <point x="376" y="5" type="curve"/>
    </contour>
    <component base="O.001"/>
  </outline>
</glyph>
<glyph name="Q.002" format="1">
  <advance width="829"/>
  <outline>
    <contour>
      <point x="298" y="6" type="line"/>
      <point x="302" y="2"/>
      <point x="313" y="-9"/>
      <point x="320" y="-16" type="curve" smooth="yes"/>
      <point x="352" y="-45"/>
      <point x="399" y="-94"/>
      <point x="444" y="-131" type="curve" smooth="yes"/>
      <point x="528" y="-202"/>
      <point x="596" y="-240"/>
      <point x="662" y="-240" type="curve" smooth="yes"/>
      <point x="750" y="-240"/>
      <point x="848" y="-202"/>
      <point x="892" y="-160" type="curve"/>
      <point x="882" y="-145" type="line"/>
      <point x="868" y="-165"/>
      <point x="829" y="-186"/>
      <point x="782" y="-186" type="curve" smooth="yes"/>
      <point x="723" y="-186"/>
      <point x="652" y="-167"/>
      <point x="577" y="-130" type="curve" smooth="yes"/>
      <point x="554" y="-120"/>
      <point x="458" y="-68"/>
      <point x="392" y="5" type="curve"/>
    </contour>
    <component base="O.002"/>
  </outline>
</glyph>
<glyph name="R.001" format="1">
  <advance width="790"/>
  <outline>
    <contour>
      <point x="208" y="612" type="line"/>
      <point x="229.681166387" y="619.541275265"/>
      <point x="261" y="624"/>
      <point x="295" y="624" type="curve" smooth="yes"/>
      <point x="374" y="624"/>
      <point x="449" y="585"/>
      <point x="449" y="481" type="curve" smooth="yes"/>
      <point x="449.0" y="423.123893805"/>
      <point x="419.687253018" y="390.77991879"/>
      <point x="393" y="372" type="curve" smooth="yes"/>
      <point x="365.154580635" y="352.110414739"/>
      <point x="327.0" y="348.0"/>
      <point x="302" y="348" type="curve" smooth="yes"/>
      <point x="267" y="348"/>
      <point x="227" y="357"/>
      <point x="219" y="359" type="curve"/>
      <point x="219" y="300" type="line"/>
      <point x="231" y="302"/>
      <point x="265.0" y="304.0"/>
      <point x="288" y="304" type="curve"/>
      <point x="356" y="306" type="line"/>
      <point x="372" y="320" type="line"/>
      <point x="487.556007854" y="341.475010309"/>
      <point x="547.0" y="419.0"/>
      <point x="547" y="492" type="curve" smooth="yes"/>
      <point x="547" y="623"/>
      <point x="456" y="677"/>
      <point x="331" y="676" type="curve" smooth="yes"/>
      <point x="296" y="676"/>
      <point x="247.825503356" y="672.0"/>
      <point x="196" y="672" type="curve"/>
    </contour>
    <contour>
      <point x="236" y="294" type="line"/>
      <point x="249" y="295"/>
      <point x="260" y="295"/>
      <point x="271" y="295" type="curve" smooth="yes"/>
      <point x="317" y="295"/>
      <point x="349" y="282"/>
      <point x="375" y="250" type="curve" smooth="yes"/>
      <point x="407.0" y="211.0"/>
      <point x="433.0" y="166.0"/>
      <point x="455" y="127" type="curve" smooth="yes"/>
      <point x="478" y="88"/>
      <point x="498.0" y="54.0"/>
      <point x="515.0" y="34.0" type="curve" smooth="yes"/>
      <point x="551.0" y="-8.0"/>
      <point x="592.0" y="-16.0"/>
      <point x="636.0" y="-16.0" type="curve" smooth="yes"/>
      <point x="696.0" y="-16.0"/>
      <point x="753" y="5"/>
      <point x="793" y="34" type="curve"/>
      <point x="786" y="49" type="line"/>
      <point x="776" y="38"/>
      <point x="756" y="26"/>
      <point x="729" y="26" type="curve" smooth="yes"/>
      <point x="693" y="26"/>
      <point x="646.0" y="39.0"/>
      <point x="581.0" y="125.0" type="curve" smooth="yes"/>
      <point x="529.0" y="195.0"/>
      <point x="496.0" y="253.0"/>
      <point x="451.0" y="291.0" type="curve" smooth="yes"/>
      <point x="423.0" y="315.0"/>
      <point x="388" y="323"/>
      <point x="349" y="329" type="curve"/>
      <point x="236" y="329" type="line"/>
    </contour>
    <contour>
      <point x="240" y="325" type="line"/>
      <point x="237.0675622" y="441.320032742"/>
      <point x="239.067542896" y="575.228915568"/>
      <point x="242" y="672" type="curve"/>
      <point x="182" y="672" type="line"/>
      <point x="151" y="672"/>
      <point x="91" y="675"/>
      <point x="48" y="680" type="curve"/>
      <point x="48" y="666" type="line"/>
      <point x="134" y="656"/>
      <point x="140" y="637"/>
      <point x="140" y="424" type="curve" smooth="yes"/>
      <point x="140" y="317" type="line"/>
    </contour>
    <contour>
      <point x="326" y="-4" type="curve"/>
      <point x="326" y="12" type="line"/>
      <point x="249.985991556" y="17.0009216082"/>
      <point x="240" y="37"/>
      <point x="240" y="256" type="curve" smooth="yes"/>
      <point x="240" y="336" type="line"/>
      <point x="140" y="338" type="line"/>
      <point x="140" y="248" type="line" smooth="yes"/>
      <point x="140" y="38"/>
      <point x="132" y="17"/>
      <point x="38" y="10" type="curve"/>
      <point x="38" y="-4" type="line"/>
      <point x="91" y="0"/>
      <point x="151" y="4"/>
      <point x="190" y="4" type="curve" smooth="yes"/>
      <point x="229" y="4"/>
      <point x="291" y="0"/>
    </contour>
  </outline>
</glyph>
<glyph name="U.001" format="1">
  <advance width="736"/>
  <outline>
    <contour>
      <point x="648" y="266" type="curve" smooth="yes"/>
      <point x="648" y="418" type="line" smooth="yes"/>
      <point x="648" y="638"/>
      <point x="663" y="665"/>
      <point x="731" y="666" type="curve"/>
      <point x="731" y="680" type="line"/>
      <point x="705" y="676"/>
      <point x="662" y="672"/>
      <point x="620" y="672" type="curve" smooth="yes"/>
      <point x="576" y="672"/>
      <point x="525" y="676"/>
      <point x="488" y="680" type="curve"/>
      <point x="488" y="666" type="line"/>
      <point x="574" y="662"/>
      <point x="578" y="619"/>
      <point x="578" y="317" type="curve" smooth="yes"/>
      <point x="578" y="119"/>
      <point x="528" y="52"/>
      <point x="412" y="52" type="curve" smooth="yes"/>
      <point x="289" y="52"/>
      <point x="228" y="129"/>
      <point x="228" y="278" type="curve" smooth="yes"/>
      <point x="228" y="321" type="line" smooth="yes"/>
      <point x="228" y="637"/>
      <point x="240" y="665"/>
      <point x="322" y="666" type="curve"/>
      <point x="322" y="680" type="line"/>
      <point x="286" y="676"/>
      <point x="233" y="672"/>
      <point x="201" y="672" type="curve" smooth="yes"/>
      <point x="160" y="672"/>
      <point x="85" y="675"/>
      <point x="40" y="680" type="curve"/>
      <point x="40" y="666" type="line"/>
      <point x="120" y="662"/>
      <point x="128" y="645"/>
      <point x="128" y="475" type="curve" smooth="yes"/>
      <point x="128" y="227" type="line" smooth="yes"/>
      <point x="128" y="56"/>
      <point x="234" y="-14"/>
      <point x="386" y="-14" type="curve" smooth="yes"/>
      <point x="537" y="-14"/>
      <point x="648" y="45"/>
    </contour>
  </outline>
</glyph>
<glyph name="U.002" format="1">
  <advance width="747"/>
  <outline>
    <contour>
      <point x="636" y="266" type="curve" smooth="yes"/>
      <point x="636" y="418" type="line" smooth="yes"/>
      <point x="636" y="638"/>
      <point x="651" y="665"/>
      <point x="719" y="666" type="curve"/>
      <point x="719" y="680" type="line"/>
      <point x="693" y="676"/>
      <point x="650" y="672"/>
      <point x="608" y="672" type="curve" smooth="yes"/>
      <point x="564" y="672"/>
      <point x="513" y="676"/>
      <point x="476" y="680" type="curve"/>
      <point x="476" y="666" type="line"/>
      <point x="562" y="662"/>
      <point x="566" y="619"/>
      <point x="566" y="317" type="curve" smooth="yes"/>
      <point x="566" y="119"/>
      <point x="516" y="52"/>
      <point x="400" y="52" type="curve" smooth="yes"/>
      <point x="277" y="52"/>
      <point x="216" y="129"/>
      <point x="216" y="278" type="curve" smooth="yes"/>
      <point x="216" y="321" type="line" smooth="yes"/>
      <point x="216" y="637"/>
      <point x="228" y="665"/>
      <point x="310" y="666" type="curve"/>
      <point x="310" y="680" type="line"/>
      <point x="274" y="676"/>
      <point x="221" y="672"/>
      <point x="189" y="672" type="curve" smooth="yes"/>
      <point x="148" y="672"/>
      <point x="73" y="675"/>
      <point x="28" y="680" type="curve"/>
      <point x="28" y="666" type="line"/>
      <point x="108" y="662"/>
      <point x="116" y="645"/>
      <point x="116" y="475" type="curve" smooth="yes"/>
      <point x="116" y="227" type="line" smooth="yes"/>
      <point x="116" y="56"/>
      <point x="222" y="-14"/>
      <point x="374" y="-14" type="curve" smooth="yes"/>
      <point x="525" y="-14"/>
      <point x="636" y="45"/>
    </contour>
  </outline>
</glyph>
<glyph name="V.001" format="1">
  <advance width="749"/>
  <outline>
    <contour>
      <point x="409" y="130" type="line"/>
      <point x="379.742999366" y="196.584897995"/>
      <point x="322" y="324"/>
      <point x="291" y="404" type="curve" smooth="yes"/>
      <point x="199" y="641"/>
      <point x="228" y="664"/>
      <point x="304" y="666" type="curve"/>
      <point x="304" y="680" type="line"/>
      <point x="272.077625591" y="676.45306951"/>
      <point x="221" y="672"/>
      <point x="173" y="672" type="curve" smooth="yes"/>
      <point x="91" y="672"/>
      <point x="48.1182754071" y="675.872197097"/>
      <point x="12" y="680" type="curve"/>
      <point x="12" y="666" type="line"/>
      <point x="72" y="668"/>
      <point x="97" y="634"/>
      <point x="205" y="356" type="curve" smooth="yes"/>
      <point x="353" y="-24" type="line"/>
    </contour>
    <contour>
      <point x="365" y="-24" type="line"/>
      <point x="548" y="395" type="line" smooth="yes"/>
      <point x="655" y="641"/>
      <point x="689" y="665"/>
      <point x="749" y="666" type="curve"/>
      <point x="749" y="680" type="line"/>
      <point x="725.894894001" y="676.813088828"/>
      <point x="685.571428571" y="672.0"/>
      <point x="638" y="672" type="curve" smooth="yes"/>
      <point x="603.118644068" y="672.0"/>
      <point x="533.242571434" y="675.030285714"/>
      <point x="491" y="680" type="curve"/>
      <point x="491" y="666" type="line"/>
      <point x="550" y="666"/>
      <point x="564" y="641"/>
      <point x="520" y="510" type="curve" smooth="yes"/>
      <point x="470" y="361"/>
      <point x="389.627292703" y="194.267008983"/>
      <point x="330" y="77" type="curve"/>
      <point x="353" y="-24" type="line"/>
    </contour>
  </outline>
</glyph>
<glyph name="V.002" format="1">
  <advance width="737"/>
  <outline>
    <contour>
      <point x="397" y="130" type="line"/>
      <point x="368" y="197"/>
      <point x="310" y="324"/>
      <point x="279" y="404" type="curve" smooth="yes"/>
      <point x="187" y="641"/>
      <point x="216" y="664"/>
      <point x="292" y="666" type="curve"/>
      <point x="292" y="680" type="line"/>
      <point x="260" y="676"/>
      <point x="209" y="672"/>
      <point x="161" y="672" type="curve" smooth="yes"/>
      <point x="79" y="672"/>
      <point x="36" y="676"/>
      <point x="0" y="680" type="curve"/>
      <point x="0" y="666" type="line"/>
      <point x="60" y="668"/>
      <point x="85" y="634"/>
      <point x="193" y="356" type="curve" smooth="yes"/>
      <point x="341" y="-24" type="line"/>
    </contour>
    <contour>
      <point x="353" y="-24" type="line"/>
      <point x="536" y="395" type="line" smooth="yes"/>
      <point x="643" y="641"/>
      <point x="677" y="665"/>
      <point x="737" y="666" type="curve"/>
      <point x="737" y="680" type="line"/>
      <point x="714" y="677"/>
      <point x="674" y="672"/>
      <point x="626" y="672" type="curve" smooth="yes"/>
      <point x="591" y="672"/>
      <point x="521" y="675"/>
      <point x="479" y="680" type="curve"/>
      <point x="479" y="666" type="line"/>
      <point x="538" y="666"/>
      <point x="552" y="641"/>
      <point x="508" y="510" type="curve" smooth="yes"/>
      <point x="458" y="361"/>
      <point x="378" y="194"/>
      <point x="318" y="77" type="curve"/>
      <point x="341" y="-24" type="line"/>
    </contour>
  </outline>
</glyph>
<glyph name="W.001" format="1">
  <advance width="978"/>
  <outline>
    <contour>
      <point x="10" y="666" type="line"/>
      <point x="89" y="666"/>
      <point x="109" y="620"/>
      <point x="183" y="324" type="curve" smooth="yes"/>
      <point x="270" y="-24" type="line"/>
      <point x="284" y="-24" type="line"/>
      <point x="332" y="155" type="line"/>
      <point x="299" y="264"/>
      <point x="275" y="361"/>
      <point x="256" y="440" type="curve" smooth="yes"/>
      <point x="212" y="623"/>
      <point x="218" y="665"/>
      <point x="295" y="666" type="curve"/>
      <point x="295" y="680" type="line"/>
      <point x="255" y="674"/>
      <point x="194" y="672"/>
      <point x="151" y="672" type="curve" smooth="yes"/>
      <point x="126" y="672"/>
      <point x="38" y="676"/>
      <point x="10" y="680" type="curve"/>
    </contour>
    <contour>
      <point x="702" y="-24" type="line"/>
      <point x="825" y="413" type="line" smooth="yes"/>
      <point x="888" y="638"/>
      <point x="915" y="664"/>
      <point x="978" y="666" type="curve"/>
      <point x="978" y="680" type="line"/>
      <point x="959" y="677"/>
      <point x="918" y="672"/>
      <point x="883" y="672" type="curve" smooth="yes"/>
      <point x="843" y="672"/>
      <point x="768" y="675"/>
      <point x="727" y="680" type="curve"/>
      <point x="727" y="666" type="line"/>
      <point x="807" y="663"/>
      <point x="813" y="641"/>
      <point x="750" y="393" type="curve" smooth="yes"/>
      <point x="739" y="350"/>
      <point x="698" y="220"/>
      <point x="653" y="85" type="curve"/>
    </contour>
    <contour>
      <point x="284" y="-24" type="line"/>
      <point x="346" y="127" type="line" smooth="yes"/>
      <point x="414" y="293"/>
      <point x="485" y="417"/>
      <point x="541" y="542" type="curve"/>
      <point x="507" y="669" type="line"/>
      <point x="480" y="602" type="line" smooth="yes"/>
      <point x="366" y="315"/>
      <point x="299" y="206"/>
      <point x="254" y="119" type="curve"/>
    </contour>
    <contour>
      <point x="478" y="495" type="line"/>
      <point x="556" y="325"/>
      <point x="600" y="194"/>
      <point x="688" y="-24" type="curve"/>
      <point x="702" y="-24" type="line"/>
      <point x="737" y="138" type="line"/>
      <point x="678" y="256"/>
      <point x="598" y="463"/>
      <point x="521" y="669" type="curve"/>
      <point x="507" y="669" type="line"/>
    </contour>
  </outline>
</glyph>
<glyph name="Z.002" format="1">
  <advance width="643"/>
  <outline>
    <contour>
      <point x="62" y="10" type="curve"/>
      <point x="66" y="-4" type="line"/>
      <point x="86" y="0"/>
      <point x="163" y="0"/>
      <point x="197" y="0" type="curve"/>
      <point x="192" y="22" type="line"/>
      <point x="218" y="47" type="line"/>
      <point x="303" y="208"/>
      <point x="433" y="421"/>
      <point x="533" y="589" type="curve" smooth="yes"/>
      <point x="580" y="668" type="line"/>
      <point x="578" y="680" type="line"/>
      <point x="539" y="673"/>
      <point x="408" y="672"/>
      <point x="304" y="672" type="curve"/>
      <point x="304" y="645" type="line"/>
      <point x="428" y="626" type="line"/>
      <point x="403" y="568"/>
      <point x="338" y="447"/>
      <point x="258" y="314" type="curve" smooth="yes"/>
      <point x="197" y="213"/>
      <point x="126" y="97"/>
    </contour>
    <contour>
      <point x="108" y="0" type="line"/>
      <point x="320" y="0"/>
      <point x="482" y="0"/>
      <point x="571" y="-4" type="curve"/>
      <point x="573" y="12" type="line"/>
      <point x="577" y="71"/>
      <point x="599" y="139"/>
      <point x="610" y="172" type="curve"/>
      <point x="595" y="178" type="line"/>
      <point x="577" y="79"/>
      <point x="509" y="55"/>
      <point x="373" y="55" type="curve" smooth="yes"/>
      <point x="308" y="55"/>
      <point x="229" y="60"/>
      <point x="150" y="88" type="curve"/>
    </contour>
    <contour>
      <point x="448" y="605" type="curve"/>
      <point x="448" y="622"/>
      <point x="462" y="658"/>
      <point x="462" y="672" type="curve"/>
      <point x="304" y="672" type="line" smooth="yes"/>
      <point x="197" y="672"/>
      <point x="106" y="678"/>
      <point x="95" y="704" type="curve"/>
      <point x="83" y="702" type="line"/>
      <point x="83" y="666"/>
      <point x="75" y="571"/>
      <point x="50" y="497" type="curve"/>
      <point x="66" y="494" type="line"/>
      <point x="83" y="605"/>
      <point x="131" y="618"/>
      <point x="277" y="618" type="curve" smooth="yes"/>
      <point x="327" y="618"/>
      <point x="386" y="613"/>
    </contour>
  </outline>
</glyph>
